*
*
G04 PADS 9.5 Build Number: 522968 generated Gerber (RS-274-X) file*
G04 PC Version=2.1*
*
%IN "Pi-Program-Iss1.1.pcb"*%
*
%MOIN*%
*
%FSLAX35Y35*%
*
*
*
*
G04 PC Standard Apertures*
*
*
G04 Thermal Relief Aperture macro.*
%AMTER*
1,1,$1,0,0*
1,0,$1-$2,0,0*
21,0,$3,$4,0,0,45*
21,0,$3,$4,0,0,135*
%
*
*
G04 Annular Aperture macro.*
%AMANN*
1,1,$1,0,0*
1,0,$2,0,0*
%
*
*
G04 Odd Aperture macro.*
%AMODD*
1,1,$1,0,0*
1,0,$1-0.005,0,0*
%
*
*
G04 PC Custom Aperture Macros*
*
*
*
*
*
*
G04 PC Aperture Table*
*
%ADD010C,0.001*%
%ADD014C,0.1*%
%ADD026C,0.024*%
%ADD027C,0.01*%
%ADD029C,0.007*%
%ADD047C,0.01969*%
*
*
*
*
G04 PC Circuitry*
G04 Layer Name Pi-Program-Iss1.1.pcb - circuitry*
%LPD*%
*
*
G04 PC Custom Flashes*
G04 Layer Name Pi-Program-Iss1.1.pcb - flashes*
%LPD*%
*
*
G04 PC Circuitry*
G04 Layer Name Pi-Program-Iss1.1.pcb - circuitry*
%LPD*%
*
G54D10*
G54D14*
G01X594488Y807087D03*
Y413386D03*
X413386Y807087D03*
Y413386D03*
G54D26*
X416701Y504201D03*
X414201Y518451D03*
X419201D03*
X424701D03*
X429701D03*
X455701Y508201D03*
X414201Y524451D03*
X444701Y553371D03*
Y558095D03*
X420701Y543701D03*
X415701D03*
X426701D03*
X414201Y550201D03*
X415701Y537201D03*
X466701Y532899D03*
Y558095D03*
Y551796D03*
X469701Y542201D03*
X474701D03*
X472201Y546201D03*
X579201Y556521D03*
Y551796D03*
Y547072D03*
Y542347D03*
Y537623D03*
Y532899D03*
X599701D03*
Y537623D03*
Y542347D03*
Y547072D03*
Y551796D03*
Y556521D03*
X421701Y593201D03*
X413201Y567701D03*
X417701Y569201D03*
X429701D03*
X423701D03*
X413201Y561201D03*
X439701Y592741D03*
X444701Y562820D03*
Y567544D03*
Y575418D03*
Y583292D03*
X453201Y591167D03*
X466701Y584867D03*
Y576993D03*
Y569119D03*
Y562820D03*
Y592701D03*
X579201Y565969D03*
Y561245D03*
Y580143D03*
Y584867D03*
Y589592D03*
Y594316D03*
X599701Y561245D03*
Y565969D03*
Y570694D03*
Y575418D03*
Y580143D03*
Y584867D03*
Y589592D03*
Y594316D03*
X421601Y608701D03*
X444701Y599041D03*
Y603765D03*
Y608489D03*
X466701Y599041D03*
Y603701D03*
Y608701D03*
X502201Y623201D03*
X579201Y599041D03*
X586701Y603765D03*
X599701Y599041D03*
Y603765D03*
X588701Y608489D03*
X543031Y746378D03*
X539291Y732402D03*
X520701Y785201D03*
X535354Y764528D03*
X551201Y792701D03*
X529701D03*
X445983Y801201D03*
X458201Y800219D03*
X456219Y813701D03*
G54D27*
X600688Y413386D02*
G75*
G03X600688I-6200J0D01*
G01X593958Y485261D02*
G03X593958I-6515J0D01*
G01Y674237D02*
G03X593958I-6515J0D01*
G01X600688Y807087D02*
G03X600688I-6200J0D01*
G01X553601Y792701D02*
G03X553601I-2400J0D01*
G01X464037Y485261D02*
G03X464037I-6515J0D01*
G01X537754Y764528D02*
G03X537754I-2400J0D01*
G01X532101Y792701D02*
G03X532101I-2400J0D01*
G01X464037Y674237D02*
G03X464037I-6515J0D01*
G01X460601Y800219D02*
G03X460601I-2400J0D01*
G01X445411Y810154D02*
G03X445411I-2184J0D01*
G01X429101Y543701D02*
G03X429101I-2400J0D01*
G01X419586Y413386D02*
G03X419586I-6200J0D01*
G01X418101Y537201D02*
G03X418101I-2400J0D01*
G01X424101Y593201D02*
G03X424101I-2400J0D01*
G01X416601Y550201D02*
G03X416601I-2400J0D01*
G01X419586Y807087D02*
G03X419586I-6200J0D01*
G01X607768Y400606D02*
Y819866D01*
G03X607268Y820366I-500J0*
G01X400606*
G03X400106Y819866I0J-500*
G01Y400606*
G03X400606Y400106I500J0*
G01X607268*
G03X607768Y400606I-0J500*
G01X600688Y413386D02*
G03X600688I-6200J0D01*
G01X593958Y485261D02*
G03X593958I-6515J0D01*
G01X587004Y610186D02*
G03X590397I1697J-1697D01*
G01X587004D02*
G03X587151Y610540I-353J354D01*
G01Y616352*
G03X587004Y616705I-500J-0*
G01X582205Y621504*
G03X581852Y621651I-353J-353*
G01X504252*
G03X503898Y621504I0J-500*
G01Y624897D02*
G03Y621504I-1697J-1696D01*
G01Y624897D02*
G03X504252Y624751I354J354D01*
G01X582701*
X583797Y624297D02*
G03X582701Y624751I-1096J-1096D01*
G01X583797Y624297D02*
X589797Y618297D01*
X590251Y617201D02*
G03X589797Y618297I-1550J-0D01*
G01X590251Y617201D02*
Y610540D01*
G03X590397Y610186I500J-0*
G01X593958Y674237D02*
G03X593958I-6515J0D01*
G01X600688Y807087D02*
G03X600688I-6200J0D01*
G01X553601Y792701D02*
G03X553601I-2400J0D01*
G01X464037Y485261D02*
G03X464037I-6515J0D01*
G01X539291Y730002D02*
G03X536891Y732402I0J2400D01*
G01X539291Y730002D02*
G03X538937Y729855I-1J-500D01*
G01X490897Y681815*
G03X490751Y681462I354J-353*
G01Y515701*
X490297Y514605D02*
G03X490751Y515701I-1096J1096D01*
G01X490297Y514605D02*
X482797Y507105D01*
X481701Y506651D02*
G03X482797Y507105I-0J1550D01*
G01X481701Y506651D02*
X457752D01*
G03X457398Y506504I0J-500*
G01Y509897D02*
G03Y506504I-1697J-1696D01*
G01Y509897D02*
G03X457752Y509751I354J354D01*
G01X480852*
G03X481205Y509897I-0J500*
G01X487504Y516196*
G03X487651Y516550I-353J354*
G01Y682311*
X488105Y683407D02*
G03X487651Y682311I1096J-1096D01*
G01X488105Y683407D02*
X536745Y732047D01*
G03X536891Y732401I-354J354*
G01Y732402*
X537754Y764528D02*
G03X537754I-2400J0D01*
G01X532101Y792701D02*
G03X532101I-2400J0D01*
G01X472632Y540984D02*
G03X474851Y544596I2069J1217D01*
G01X472632Y540984D02*
G03X471770I-431J-253D01*
G01X469551Y544596D02*
G03X471770Y540984I150J-2395D01*
G01X469551Y544596D02*
G03X469982Y545286I-31J499D01*
G01X474420D02*
G03X469982I-2219J915D01*
G01X474420D02*
G03X474851Y544596I462J-191D01*
G01X464037Y674237D02*
G03X464037I-6515J0D01*
G01X520700Y782801D02*
G03X518301Y785201I1J2400D01*
G01X520700Y782801D02*
G03X520346Y782654I-0J-500D01*
G01X441397Y703705*
G03X441251Y703352I354J-353*
G01Y594792*
G03X441397Y594438I500J-0*
G01X438004D02*
G03X441397I1697J-1697D01*
G01X438004D02*
G03X438151Y594792I-353J354D01*
G01Y704201*
X438605Y705297D02*
G03X438151Y704201I1096J-1096D01*
G01X438605Y705297D02*
X518154Y784846D01*
G03X518301Y785200I-353J354*
G01Y785201*
X460601Y800219D02*
G03X460601I-2400J0D01*
G01X456856Y810683D02*
G03X458985Y812338I2119J-529D01*
G01X456856Y810683D02*
G03X456345Y811304I-485J122D01*
G01X458510Y812987D02*
G03X456345Y811304I-2291J714D01*
G01X458510Y812987D02*
G03X458985Y812338I478J-149D01*
G01X445411Y810154D02*
G03X445411I-2184J0D01*
G01X429101Y543701D02*
G03X429101I-2400J0D01*
G01X419586Y413386D02*
G03X419586I-6200J0D01*
G01X418101Y537201D02*
G03X418101I-2400J0D01*
G01X418632Y542484D02*
G03Y544917I2069J1217D01*
G01Y542484D02*
G03X417770I-431J-253D01*
G01Y544917D02*
G03Y542484I-2069J-1216D01*
G01Y544917D02*
G03X418632I431J254D01*
G01X424101Y593201D02*
G03X424101I-2400J0D01*
G01X416601Y550201D02*
G03X416601I-2400J0D01*
G01X419586Y807087D02*
G03X419586I-6200J0D01*
G01X400106Y819505D02*
X607768D01*
X400106Y818605D02*
X607768D01*
X400106Y817705D02*
X607768D01*
X400106Y816805D02*
X607768D01*
X457168Y815905D02*
X607768D01*
X458234Y815005D02*
X607768D01*
X458585Y814105D02*
X607768D01*
X595491Y813205D02*
X607768D01*
X597836Y812305D02*
X607768D01*
X598937Y811405D02*
X607768D01*
X599661Y810505D02*
X607768D01*
X600154Y809605D02*
X607768D01*
X600473Y808705D02*
X607768D01*
X600646Y807805D02*
X607768D01*
X600686Y806905D02*
X607768D01*
X600593Y806005D02*
X607768D01*
X600363Y805105D02*
X607768D01*
X599978Y804205D02*
X607768D01*
X599401Y803305D02*
X607768D01*
X598553Y802405D02*
X607768D01*
X597187Y801505D02*
X607768D01*
X460570Y800605D02*
X607768D01*
X460545Y799705D02*
X607768D01*
X460140Y798805D02*
X607768D01*
X458838Y797905D02*
X607768D01*
X400106Y797005D02*
X607768D01*
X400106Y796105D02*
X607768D01*
X400106Y795205D02*
X607768D01*
X552986Y794305D02*
X607768D01*
X553495Y793405D02*
X607768D01*
X553593Y792505D02*
X607768D01*
X553336Y791605D02*
X607768D01*
X552534Y790705D02*
X607768D01*
X400106Y789805D02*
X607768D01*
X400106Y788905D02*
X607768D01*
X400106Y788005D02*
X607768D01*
X522162Y787105D02*
X607768D01*
X522881Y786205D02*
X607768D01*
X523099Y785305D02*
X607768D01*
X522965Y784405D02*
X607768D01*
X522399Y783505D02*
X607768D01*
X520297Y782605D02*
X607768D01*
X519397Y781705D02*
X607768D01*
X518497Y780805D02*
X607768D01*
X517597Y779905D02*
X607768D01*
X516697Y779005D02*
X607768D01*
X515797Y778105D02*
X607768D01*
X514897Y777205D02*
X607768D01*
X513997Y776305D02*
X607768D01*
X513097Y775405D02*
X607768D01*
X512197Y774505D02*
X607768D01*
X511297Y773605D02*
X607768D01*
X510397Y772705D02*
X607768D01*
X509497Y771805D02*
X607768D01*
X508597Y770905D02*
X607768D01*
X507697Y770005D02*
X607768D01*
X506797Y769105D02*
X607768D01*
X505897Y768205D02*
X607768D01*
X504997Y767305D02*
X607768D01*
X536849Y766405D02*
X607768D01*
X537546Y765505D02*
X607768D01*
X537753Y764605D02*
X607768D01*
X537609Y763705D02*
X607768D01*
X537026Y762805D02*
X607768D01*
X499597Y761905D02*
X607768D01*
X498697Y761005D02*
X607768D01*
X497797Y760105D02*
X607768D01*
X496897Y759205D02*
X607768D01*
X495997Y758305D02*
X607768D01*
X495097Y757405D02*
X607768D01*
X494197Y756505D02*
X607768D01*
X493297Y755605D02*
X607768D01*
X492397Y754705D02*
X607768D01*
X491497Y753805D02*
X607768D01*
X490597Y752905D02*
X607768D01*
X489697Y752005D02*
X607768D01*
X488797Y751105D02*
X607768D01*
X487897Y750205D02*
X607768D01*
X486997Y749305D02*
X607768D01*
X486097Y748405D02*
X607768D01*
X485197Y747505D02*
X607768D01*
X484297Y746605D02*
X607768D01*
X483397Y745705D02*
X607768D01*
X482497Y744805D02*
X607768D01*
X481597Y743905D02*
X607768D01*
X480697Y743005D02*
X607768D01*
X479797Y742105D02*
X607768D01*
X478897Y741205D02*
X607768D01*
X477997Y740305D02*
X607768D01*
X477097Y739405D02*
X607768D01*
X476197Y738505D02*
X607768D01*
X475297Y737605D02*
X607768D01*
X474397Y736705D02*
X607768D01*
X473497Y735805D02*
X607768D01*
X472597Y734905D02*
X607768D01*
X541077Y734005D02*
X607768D01*
X541586Y733105D02*
X607768D01*
X541683Y732205D02*
X607768D01*
X541426Y731305D02*
X607768D01*
X540623Y730405D02*
X607768D01*
X538587Y729505D02*
X607768D01*
X537687Y728605D02*
X607768D01*
X536787Y727705D02*
X607768D01*
X535887Y726805D02*
X607768D01*
X534987Y725905D02*
X607768D01*
X534087Y725005D02*
X607768D01*
X533187Y724105D02*
X607768D01*
X532287Y723205D02*
X607768D01*
X531387Y722305D02*
X607768D01*
X530487Y721405D02*
X607768D01*
X529587Y720505D02*
X607768D01*
X528687Y719605D02*
X607768D01*
X527787Y718705D02*
X607768D01*
X526887Y717805D02*
X607768D01*
X525987Y716905D02*
X607768D01*
X525087Y716005D02*
X607768D01*
X524187Y715105D02*
X607768D01*
X523287Y714205D02*
X607768D01*
X522387Y713305D02*
X607768D01*
X521487Y712405D02*
X607768D01*
X520587Y711505D02*
X607768D01*
X519687Y710605D02*
X607768D01*
X518787Y709705D02*
X607768D01*
X517887Y708805D02*
X607768D01*
X516987Y707905D02*
X607768D01*
X516087Y707005D02*
X607768D01*
X515187Y706105D02*
X607768D01*
X514287Y705205D02*
X607768D01*
X513387Y704305D02*
X607768D01*
X512487Y703405D02*
X607768D01*
X511587Y702505D02*
X607768D01*
X510687Y701605D02*
X607768D01*
X509787Y700705D02*
X607768D01*
X508887Y699805D02*
X607768D01*
X507987Y698905D02*
X607768D01*
X507087Y698005D02*
X607768D01*
X506187Y697105D02*
X607768D01*
X505287Y696205D02*
X607768D01*
X504387Y695305D02*
X607768D01*
X503487Y694405D02*
X607768D01*
X502587Y693505D02*
X607768D01*
X501687Y692605D02*
X607768D01*
X500787Y691705D02*
X607768D01*
X499887Y690805D02*
X607768D01*
X498987Y689905D02*
X607768D01*
X498087Y689005D02*
X607768D01*
X497187Y688105D02*
X607768D01*
X496287Y687205D02*
X607768D01*
X495387Y686305D02*
X607768D01*
X494487Y685405D02*
X607768D01*
X493587Y684505D02*
X607768D01*
X492687Y683605D02*
X607768D01*
X491787Y682705D02*
X607768D01*
X490887Y681805D02*
X607768D01*
X490751Y680905D02*
X607768D01*
X590472Y680005D02*
X607768D01*
X591773Y679105D02*
X607768D01*
X592610Y678205D02*
X607768D01*
X593191Y677305D02*
X607768D01*
X593587Y676405D02*
X607768D01*
X593834Y675505D02*
X607768D01*
X593948Y674605D02*
X607768D01*
X593936Y673705D02*
X607768D01*
X593799Y672805D02*
X607768D01*
X593527Y671905D02*
X607768D01*
X593100Y671005D02*
X607768D01*
X592480Y670105D02*
X607768D01*
X591582Y669205D02*
X607768D01*
X590137Y668305D02*
X607768D01*
X490751Y667405D02*
X607768D01*
X490751Y666505D02*
X607768D01*
X490751Y665605D02*
X607768D01*
X490751Y664705D02*
X607768D01*
X490751Y663805D02*
X607768D01*
X490751Y662905D02*
X607768D01*
X490751Y662005D02*
X607768D01*
X490751Y661105D02*
X607768D01*
X490751Y660205D02*
X607768D01*
X490751Y659305D02*
X607768D01*
X490751Y658405D02*
X607768D01*
X490751Y657505D02*
X607768D01*
X490751Y656605D02*
X607768D01*
X490751Y655705D02*
X607768D01*
X490751Y654805D02*
X607768D01*
X490751Y653905D02*
X607768D01*
X490751Y653005D02*
X607768D01*
X490751Y652105D02*
X607768D01*
X490751Y651205D02*
X607768D01*
X490751Y650305D02*
X607768D01*
X490751Y649405D02*
X607768D01*
X490751Y648505D02*
X607768D01*
X490751Y647605D02*
X607768D01*
X490751Y646705D02*
X607768D01*
X490751Y645805D02*
X607768D01*
X490751Y644905D02*
X607768D01*
X490751Y644005D02*
X607768D01*
X490751Y643105D02*
X607768D01*
X490751Y642205D02*
X607768D01*
X490751Y641305D02*
X607768D01*
X490751Y640405D02*
X607768D01*
X490751Y639505D02*
X607768D01*
X490751Y638605D02*
X607768D01*
X490751Y637705D02*
X607768D01*
X490751Y636805D02*
X607768D01*
X490751Y635905D02*
X607768D01*
X490751Y635005D02*
X607768D01*
X490751Y634105D02*
X607768D01*
X490751Y633205D02*
X607768D01*
X490751Y632305D02*
X607768D01*
X490751Y631405D02*
X607768D01*
X490751Y630505D02*
X607768D01*
X490751Y629605D02*
X607768D01*
X490751Y628705D02*
X607768D01*
X490751Y627805D02*
X607768D01*
X490751Y626905D02*
X607768D01*
X490751Y626005D02*
X607768D01*
X503662Y625105D02*
X607768D01*
X583889Y624205D02*
X607768D01*
X584789Y623305D02*
X607768D01*
X585689Y622405D02*
X607768D01*
X586589Y621505D02*
X607768D01*
X587489Y620605D02*
X607768D01*
X588389Y619705D02*
X607768D01*
X589289Y618805D02*
X607768D01*
X590082Y617905D02*
X607768D01*
X590251Y617005D02*
X607768D01*
X590251Y616105D02*
X607768D01*
X590251Y615205D02*
X607768D01*
X590251Y614305D02*
X607768D01*
X590251Y613405D02*
X607768D01*
X590251Y612505D02*
X607768D01*
X590251Y611605D02*
X607768D01*
X590251Y610705D02*
X607768D01*
X590708Y609805D02*
X607768D01*
X591064Y608905D02*
X607768D01*
X591052Y608005D02*
X607768D01*
X590662Y607105D02*
X607768D01*
X589439Y606205D02*
X607768D01*
X490751Y605305D02*
X607768D01*
X490751Y604405D02*
X607768D01*
X490751Y603505D02*
X607768D01*
X490751Y602605D02*
X607768D01*
X490751Y601705D02*
X607768D01*
X490751Y600805D02*
X607768D01*
X490751Y599905D02*
X607768D01*
X490751Y599005D02*
X607768D01*
X490751Y598105D02*
X607768D01*
X490751Y597205D02*
X607768D01*
X490751Y596305D02*
X607768D01*
X490751Y595405D02*
X607768D01*
X490751Y594505D02*
X607768D01*
X490751Y593605D02*
X607768D01*
X490751Y592705D02*
X607768D01*
X490751Y591805D02*
X607768D01*
X490751Y590905D02*
X607768D01*
X490751Y590005D02*
X607768D01*
X490751Y589105D02*
X607768D01*
X490751Y588205D02*
X607768D01*
X490751Y587305D02*
X607768D01*
X490751Y586405D02*
X607768D01*
X490751Y585505D02*
X607768D01*
X490751Y584605D02*
X607768D01*
X490751Y583705D02*
X607768D01*
X490751Y582805D02*
X607768D01*
X490751Y581905D02*
X607768D01*
X490751Y581005D02*
X607768D01*
X490751Y580105D02*
X607768D01*
X490751Y579205D02*
X607768D01*
X490751Y578305D02*
X607768D01*
X490751Y577405D02*
X607768D01*
X490751Y576505D02*
X607768D01*
X490751Y575605D02*
X607768D01*
X490751Y574705D02*
X607768D01*
X490751Y573805D02*
X607768D01*
X490751Y572905D02*
X607768D01*
X490751Y572005D02*
X607768D01*
X490751Y571105D02*
X607768D01*
X490751Y570205D02*
X607768D01*
X490751Y569305D02*
X607768D01*
X490751Y568405D02*
X607768D01*
X490751Y567505D02*
X607768D01*
X490751Y566605D02*
X607768D01*
X490751Y565705D02*
X607768D01*
X490751Y564805D02*
X607768D01*
X490751Y563905D02*
X607768D01*
X490751Y563005D02*
X607768D01*
X490751Y562105D02*
X607768D01*
X490751Y561205D02*
X607768D01*
X490751Y560305D02*
X607768D01*
X490751Y559405D02*
X607768D01*
X490751Y558505D02*
X607768D01*
X490751Y557605D02*
X607768D01*
X490751Y556705D02*
X607768D01*
X490751Y555805D02*
X607768D01*
X490751Y554905D02*
X607768D01*
X490751Y554005D02*
X607768D01*
X490751Y553105D02*
X607768D01*
X490751Y552205D02*
X607768D01*
X490751Y551305D02*
X607768D01*
X490751Y550405D02*
X607768D01*
X490751Y549505D02*
X607768D01*
X490751Y548605D02*
X607768D01*
X490751Y547705D02*
X607768D01*
X490751Y546805D02*
X607768D01*
X490751Y545905D02*
X607768D01*
X490751Y545005D02*
X607768D01*
X490751Y544105D02*
X607768D01*
X490751Y543205D02*
X607768D01*
X490751Y542305D02*
X607768D01*
X490751Y541405D02*
X607768D01*
X490751Y540505D02*
X607768D01*
X490751Y539605D02*
X607768D01*
X490751Y538705D02*
X607768D01*
X490751Y537805D02*
X607768D01*
X490751Y536905D02*
X607768D01*
X490751Y536005D02*
X607768D01*
X490751Y535105D02*
X607768D01*
X490751Y534205D02*
X607768D01*
X490751Y533305D02*
X607768D01*
X490751Y532405D02*
X607768D01*
X490751Y531505D02*
X607768D01*
X490751Y530605D02*
X607768D01*
X490751Y529705D02*
X607768D01*
X490751Y528805D02*
X607768D01*
X490751Y527905D02*
X607768D01*
X490751Y527005D02*
X607768D01*
X490751Y526105D02*
X607768D01*
X490751Y525205D02*
X607768D01*
X490751Y524305D02*
X607768D01*
X490751Y523405D02*
X607768D01*
X490751Y522505D02*
X607768D01*
X490751Y521605D02*
X607768D01*
X490751Y520705D02*
X607768D01*
X490751Y519805D02*
X607768D01*
X490751Y518905D02*
X607768D01*
X490751Y518005D02*
X607768D01*
X490751Y517105D02*
X607768D01*
X490751Y516205D02*
X607768D01*
X490699Y515305D02*
X607768D01*
X490097Y514405D02*
X607768D01*
X489197Y513505D02*
X607768D01*
X488297Y512605D02*
X607768D01*
X487397Y511705D02*
X607768D01*
X486497Y510805D02*
X607768D01*
X485597Y509905D02*
X607768D01*
X484697Y509005D02*
X607768D01*
X483797Y508105D02*
X607768D01*
X482897Y507205D02*
X607768D01*
X457173Y506305D02*
X607768D01*
X400106Y505405D02*
X607768D01*
X400106Y504505D02*
X607768D01*
X400106Y503605D02*
X607768D01*
X400106Y502705D02*
X607768D01*
X400106Y501805D02*
X607768D01*
X400106Y500905D02*
X607768D01*
X400106Y500005D02*
X607768D01*
X400106Y499105D02*
X607768D01*
X400106Y498205D02*
X607768D01*
X400106Y497305D02*
X607768D01*
X400106Y496405D02*
X607768D01*
X400106Y495505D02*
X607768D01*
X400106Y494605D02*
X607768D01*
X400106Y493705D02*
X607768D01*
X400106Y492805D02*
X607768D01*
X400106Y491905D02*
X607768D01*
X590517Y491005D02*
X607768D01*
X591800Y490105D02*
X607768D01*
X592629Y489205D02*
X607768D01*
X593203Y488305D02*
X607768D01*
X593595Y487405D02*
X607768D01*
X593838Y486505D02*
X607768D01*
X593949Y485605D02*
X607768D01*
X593934Y484705D02*
X607768D01*
X593793Y483805D02*
X607768D01*
X593517Y482905D02*
X607768D01*
X593086Y482005D02*
X607768D01*
X592461Y481105D02*
X607768D01*
X591552Y480205D02*
X607768D01*
X590084Y479305D02*
X607768D01*
X400106Y478405D02*
X607768D01*
X400106Y477505D02*
X607768D01*
X400106Y476605D02*
X607768D01*
X400106Y475705D02*
X607768D01*
X400106Y474805D02*
X607768D01*
X400106Y473905D02*
X607768D01*
X400106Y473005D02*
X607768D01*
X400106Y472105D02*
X607768D01*
X400106Y471205D02*
X607768D01*
X400106Y470305D02*
X607768D01*
X400106Y469405D02*
X607768D01*
X400106Y468505D02*
X607768D01*
X400106Y467605D02*
X607768D01*
X400106Y466705D02*
X607768D01*
X400106Y465805D02*
X607768D01*
X400106Y464905D02*
X607768D01*
X400106Y464005D02*
X607768D01*
X400106Y463105D02*
X607768D01*
X400106Y462205D02*
X607768D01*
X400106Y461305D02*
X607768D01*
X400106Y460405D02*
X607768D01*
X400106Y459505D02*
X607768D01*
X400106Y458605D02*
X607768D01*
X400106Y457705D02*
X607768D01*
X400106Y456805D02*
X607768D01*
X400106Y455905D02*
X607768D01*
X400106Y455005D02*
X607768D01*
X400106Y454105D02*
X607768D01*
X400106Y453205D02*
X607768D01*
X400106Y452305D02*
X607768D01*
X400106Y451405D02*
X607768D01*
X400106Y450505D02*
X607768D01*
X400106Y449605D02*
X607768D01*
X400106Y448705D02*
X607768D01*
X400106Y447805D02*
X607768D01*
X400106Y446905D02*
X607768D01*
X400106Y446005D02*
X607768D01*
X400106Y445105D02*
X607768D01*
X400106Y444205D02*
X607768D01*
X400106Y443305D02*
X607768D01*
X400106Y442405D02*
X607768D01*
X400106Y441505D02*
X607768D01*
X400106Y440605D02*
X607768D01*
X400106Y439705D02*
X607768D01*
X400106Y438805D02*
X607768D01*
X400106Y437905D02*
X607768D01*
X400106Y437005D02*
X607768D01*
X400106Y436105D02*
X607768D01*
X400106Y435205D02*
X607768D01*
X400106Y434305D02*
X607768D01*
X400106Y433405D02*
X607768D01*
X400106Y432505D02*
X607768D01*
X400106Y431605D02*
X607768D01*
X400106Y430705D02*
X607768D01*
X400106Y429805D02*
X607768D01*
X400106Y428905D02*
X607768D01*
X400106Y428005D02*
X607768D01*
X400106Y427105D02*
X607768D01*
X400106Y426205D02*
X607768D01*
X400106Y425305D02*
X607768D01*
X400106Y424405D02*
X607768D01*
X400106Y423505D02*
X607768D01*
X400106Y422605D02*
X607768D01*
X400106Y421705D02*
X607768D01*
X400106Y420805D02*
X607768D01*
X400106Y419905D02*
X607768D01*
X597108Y419005D02*
X607768D01*
X598509Y418105D02*
X607768D01*
X599372Y417205D02*
X607768D01*
X599958Y416305D02*
X607768D01*
X600350Y415405D02*
X607768D01*
X600586Y414505D02*
X607768D01*
X600684Y413605D02*
X607768D01*
X600651Y412705D02*
X607768D01*
X600483Y411805D02*
X607768D01*
X600170Y410905D02*
X607768D01*
X599685Y410005D02*
X607768D01*
X598973Y409105D02*
X607768D01*
X597894Y408205D02*
X607768D01*
X595698Y407305D02*
X607768D01*
X400106Y406405D02*
X607768D01*
X400106Y405505D02*
X607768D01*
X400106Y404605D02*
X607768D01*
X400106Y403705D02*
X607768D01*
X400106Y402805D02*
X607768D01*
X400106Y401905D02*
X607768D01*
X400106Y401005D02*
X607768D01*
X458567Y813205D02*
X593485D01*
X414596Y407305D02*
X593278D01*
X416006Y419005D02*
X591868D01*
X460227Y801505D02*
X591789D01*
X459352Y812305D02*
X591140D01*
X416792Y408205D02*
X591082D01*
X417407Y418105D02*
X590467D01*
X459191Y802405D02*
X590423D01*
X460765Y811405D02*
X590039D01*
X417871Y409105D02*
X590003D01*
X418270Y417205D02*
X589604D01*
X418299Y803305D02*
X589575D01*
X461131Y810505D02*
X589316D01*
X418583Y410005D02*
X589291D01*
X418856Y416305D02*
X589018D01*
X418875Y804205D02*
X588999D01*
X461089Y809605D02*
X588823D01*
X419068Y410905D02*
X588806D01*
X419248Y415405D02*
X588626D01*
X419261Y805105D02*
X588613D01*
X460610Y808705D02*
X588503D01*
X419381Y411805D02*
X588493D01*
X419484Y414505D02*
X588390D01*
X419491Y806005D02*
X588383D01*
X419544Y807805D02*
X588330D01*
X419548Y412705D02*
X588326D01*
X419582Y413605D02*
X588292D01*
X419583Y806905D02*
X588291D01*
X490751Y606205D02*
X587963D01*
X490751Y616105D02*
X587151D01*
X490751Y615205D02*
X587151D01*
X490751Y614305D02*
X587151D01*
X490751Y613405D02*
X587151D01*
X490751Y612505D02*
X587151D01*
X490751Y611605D02*
X587151D01*
X490751Y610705D02*
X587151D01*
X490751Y607105D02*
X586740D01*
X490751Y617005D02*
X586705D01*
X490751Y609805D02*
X586694D01*
X490751Y608005D02*
X586350D01*
X490751Y608905D02*
X586337D01*
X490751Y617905D02*
X585805D01*
X490751Y618805D02*
X584905D01*
X460163Y479305D02*
X584802D01*
X490751Y668305D02*
X584749D01*
X490751Y680005D02*
X584415D01*
X460596Y491005D02*
X584369D01*
X490751Y619705D02*
X584005D01*
X461631Y480205D02*
X583334D01*
X490751Y669205D02*
X583305D01*
X490751Y679105D02*
X583114D01*
X490751Y620605D02*
X583105D01*
X461879Y490105D02*
X583087D01*
X462540Y481105D02*
X582426D01*
X490751Y670105D02*
X582406D01*
X490751Y678205D02*
X582276D01*
X462708Y489205D02*
X582258D01*
X503899Y621505D02*
X582205D01*
X463165Y482005D02*
X581800D01*
X490751Y671005D02*
X581786D01*
X490751Y677305D02*
X581696D01*
X463282Y488305D02*
X581683D01*
X463596Y482905D02*
X581369D01*
X490751Y671905D02*
X581360D01*
X490751Y676405D02*
X581300D01*
X463674Y487405D02*
X581291D01*
X463872Y483805D02*
X581093D01*
X490751Y672805D02*
X581088D01*
X490751Y675505D02*
X581053D01*
X463917Y486505D02*
X581048D01*
X464013Y484705D02*
X580952D01*
X490751Y673705D02*
X580950D01*
X490751Y674605D02*
X580939D01*
X464028Y485605D02*
X580937D01*
X531034Y790705D02*
X549868D01*
X531486Y794305D02*
X549416D01*
X531836Y791605D02*
X549066D01*
X531995Y793405D02*
X548906D01*
X532093Y792505D02*
X548809D01*
X471697Y734005D02*
X537506D01*
X470797Y733105D02*
X536997D01*
X469897Y732205D02*
X536851D01*
X468997Y731305D02*
X536003D01*
X468097Y730405D02*
X535103D01*
X467197Y729505D02*
X534203D01*
X504097Y766405D02*
X533859D01*
X500497Y762805D02*
X533683D01*
X466297Y728605D02*
X533303D01*
X503197Y765505D02*
X533162D01*
X501397Y763705D02*
X533100D01*
X502297Y764605D02*
X532956D01*
X465397Y727705D02*
X532403D01*
X464497Y726805D02*
X531503D01*
X463597Y725905D02*
X530603D01*
X462697Y725005D02*
X529703D01*
X461797Y724105D02*
X528803D01*
X400106Y790705D02*
X528368D01*
X400106Y794305D02*
X527916D01*
X460897Y723205D02*
X527903D01*
X400106Y791605D02*
X527566D01*
X400106Y793405D02*
X527406D01*
X400106Y792505D02*
X527309D01*
X459997Y722305D02*
X527003D01*
X459097Y721405D02*
X526103D01*
X458197Y720505D02*
X525203D01*
X457297Y719605D02*
X524303D01*
X456397Y718705D02*
X523403D01*
X455497Y717805D02*
X522503D01*
X454597Y716905D02*
X521603D01*
X453697Y716005D02*
X520703D01*
X452797Y715105D02*
X519803D01*
X400106Y787105D02*
X519240D01*
X451897Y714205D02*
X518903D01*
X400106Y786205D02*
X518521D01*
X400106Y785305D02*
X518303D01*
X450997Y713305D02*
X518003D01*
X400106Y784405D02*
X517713D01*
X450097Y712405D02*
X517103D01*
X400106Y783505D02*
X516813D01*
X449197Y711505D02*
X516203D01*
X400106Y782605D02*
X515913D01*
X448297Y710605D02*
X515303D01*
X400106Y781705D02*
X515013D01*
X447397Y709705D02*
X514403D01*
X400106Y780805D02*
X514113D01*
X446497Y708805D02*
X513503D01*
X400106Y779905D02*
X513213D01*
X445597Y707905D02*
X512603D01*
X400106Y779005D02*
X512313D01*
X444697Y707005D02*
X511703D01*
X400106Y778105D02*
X511413D01*
X443797Y706105D02*
X510803D01*
X400106Y777205D02*
X510513D01*
X442897Y705205D02*
X509903D01*
X400106Y776305D02*
X509613D01*
X441997Y704305D02*
X509003D01*
X400106Y775405D02*
X508713D01*
X441254Y703405D02*
X508103D01*
X400106Y774505D02*
X507813D01*
X441251Y702505D02*
X507203D01*
X400106Y773605D02*
X506913D01*
X441251Y701605D02*
X506303D01*
X400106Y772705D02*
X506013D01*
X441251Y700705D02*
X505403D01*
X400106Y771805D02*
X505113D01*
X441251Y699805D02*
X504503D01*
X400106Y770905D02*
X504213D01*
X441251Y698905D02*
X503603D01*
X400106Y770005D02*
X503313D01*
X441251Y698005D02*
X502703D01*
X400106Y769105D02*
X502413D01*
X441251Y697105D02*
X501803D01*
X400106Y768205D02*
X501513D01*
X441251Y696205D02*
X500903D01*
X490751Y625105D02*
X500740D01*
X400106Y767305D02*
X500613D01*
X490751Y621505D02*
X500502D01*
X490751Y624205D02*
X500021D01*
X441251Y695305D02*
X500003D01*
X490751Y622405D02*
X499937D01*
X490751Y623305D02*
X499803D01*
X400106Y766405D02*
X499713D01*
X441251Y694405D02*
X499103D01*
X400106Y765505D02*
X498813D01*
X441251Y693505D02*
X498203D01*
X400106Y764605D02*
X497913D01*
X441251Y692605D02*
X497303D01*
X400106Y763705D02*
X497013D01*
X441251Y691705D02*
X496403D01*
X400106Y762805D02*
X496113D01*
X441251Y690805D02*
X495503D01*
X400106Y761905D02*
X495213D01*
X441251Y689905D02*
X494603D01*
X400106Y761005D02*
X494313D01*
X441251Y689005D02*
X493703D01*
X400106Y760105D02*
X493413D01*
X441251Y688105D02*
X492803D01*
X400106Y759205D02*
X492513D01*
X441251Y687205D02*
X491903D01*
X400106Y758305D02*
X491613D01*
X441251Y686305D02*
X491003D01*
X400106Y757405D02*
X490713D01*
X441251Y685405D02*
X490103D01*
X400106Y756505D02*
X489813D01*
X441251Y684505D02*
X489203D01*
X400106Y755605D02*
X488913D01*
X441251Y683605D02*
X488303D01*
X400106Y754705D02*
X488013D01*
X441251Y682705D02*
X487702D01*
X441251Y681805D02*
X487651D01*
X441251Y680905D02*
X487651D01*
X460551Y680005D02*
X487651D01*
X461852Y679105D02*
X487651D01*
X462689Y678205D02*
X487651D01*
X463270Y677305D02*
X487651D01*
X463666Y676405D02*
X487651D01*
X463913Y675505D02*
X487651D01*
X464027Y674605D02*
X487651D01*
X464015Y673705D02*
X487651D01*
X463878Y672805D02*
X487651D01*
X463606Y671905D02*
X487651D01*
X463179Y671005D02*
X487651D01*
X462559Y670105D02*
X487651D01*
X461661Y669205D02*
X487651D01*
X460216Y668305D02*
X487651D01*
X441251Y667405D02*
X487651D01*
X441251Y666505D02*
X487651D01*
X441251Y665605D02*
X487651D01*
X441251Y664705D02*
X487651D01*
X441251Y663805D02*
X487651D01*
X441251Y662905D02*
X487651D01*
X441251Y662005D02*
X487651D01*
X441251Y661105D02*
X487651D01*
X441251Y660205D02*
X487651D01*
X441251Y659305D02*
X487651D01*
X441251Y658405D02*
X487651D01*
X441251Y657505D02*
X487651D01*
X441251Y656605D02*
X487651D01*
X441251Y655705D02*
X487651D01*
X441251Y654805D02*
X487651D01*
X441251Y653905D02*
X487651D01*
X441251Y653005D02*
X487651D01*
X441251Y652105D02*
X487651D01*
X441251Y651205D02*
X487651D01*
X441251Y650305D02*
X487651D01*
X441251Y649405D02*
X487651D01*
X441251Y648505D02*
X487651D01*
X441251Y647605D02*
X487651D01*
X441251Y646705D02*
X487651D01*
X441251Y645805D02*
X487651D01*
X441251Y644905D02*
X487651D01*
X441251Y644005D02*
X487651D01*
X441251Y643105D02*
X487651D01*
X441251Y642205D02*
X487651D01*
X441251Y641305D02*
X487651D01*
X441251Y640405D02*
X487651D01*
X441251Y639505D02*
X487651D01*
X441251Y638605D02*
X487651D01*
X441251Y637705D02*
X487651D01*
X441251Y636805D02*
X487651D01*
X441251Y635905D02*
X487651D01*
X441251Y635005D02*
X487651D01*
X441251Y634105D02*
X487651D01*
X441251Y633205D02*
X487651D01*
X441251Y632305D02*
X487651D01*
X441251Y631405D02*
X487651D01*
X441251Y630505D02*
X487651D01*
X441251Y629605D02*
X487651D01*
X441251Y628705D02*
X487651D01*
X441251Y627805D02*
X487651D01*
X441251Y626905D02*
X487651D01*
X441251Y626005D02*
X487651D01*
X441251Y625105D02*
X487651D01*
X441251Y624205D02*
X487651D01*
X441251Y623305D02*
X487651D01*
X441251Y622405D02*
X487651D01*
X441251Y621505D02*
X487651D01*
X441251Y620605D02*
X487651D01*
X441251Y619705D02*
X487651D01*
X441251Y618805D02*
X487651D01*
X441251Y617905D02*
X487651D01*
X441251Y617005D02*
X487651D01*
X441251Y616105D02*
X487651D01*
X441251Y615205D02*
X487651D01*
X441251Y614305D02*
X487651D01*
X441251Y613405D02*
X487651D01*
X441251Y612505D02*
X487651D01*
X441251Y611605D02*
X487651D01*
X441251Y610705D02*
X487651D01*
X441251Y609805D02*
X487651D01*
X441251Y608905D02*
X487651D01*
X441251Y608005D02*
X487651D01*
X441251Y607105D02*
X487651D01*
X441251Y606205D02*
X487651D01*
X441251Y605305D02*
X487651D01*
X441251Y604405D02*
X487651D01*
X441251Y603505D02*
X487651D01*
X441251Y602605D02*
X487651D01*
X441251Y601705D02*
X487651D01*
X441251Y600805D02*
X487651D01*
X441251Y599905D02*
X487651D01*
X441251Y599005D02*
X487651D01*
X441251Y598105D02*
X487651D01*
X441251Y597205D02*
X487651D01*
X441251Y596305D02*
X487651D01*
X441251Y595405D02*
X487651D01*
X441341Y594505D02*
X487651D01*
X441940Y593605D02*
X487651D01*
X442101Y592705D02*
X487651D01*
X441911Y591805D02*
X487651D01*
X441247Y590905D02*
X487651D01*
X400106Y590005D02*
X487651D01*
X400106Y589105D02*
X487651D01*
X400106Y588205D02*
X487651D01*
X400106Y587305D02*
X487651D01*
X400106Y586405D02*
X487651D01*
X400106Y585505D02*
X487651D01*
X400106Y584605D02*
X487651D01*
X400106Y583705D02*
X487651D01*
X400106Y582805D02*
X487651D01*
X400106Y581905D02*
X487651D01*
X400106Y581005D02*
X487651D01*
X400106Y580105D02*
X487651D01*
X400106Y579205D02*
X487651D01*
X400106Y578305D02*
X487651D01*
X400106Y577405D02*
X487651D01*
X400106Y576505D02*
X487651D01*
X400106Y575605D02*
X487651D01*
X400106Y574705D02*
X487651D01*
X400106Y573805D02*
X487651D01*
X400106Y572905D02*
X487651D01*
X400106Y572005D02*
X487651D01*
X400106Y571105D02*
X487651D01*
X400106Y570205D02*
X487651D01*
X400106Y569305D02*
X487651D01*
X400106Y568405D02*
X487651D01*
X400106Y567505D02*
X487651D01*
X400106Y566605D02*
X487651D01*
X400106Y565705D02*
X487651D01*
X400106Y564805D02*
X487651D01*
X400106Y563905D02*
X487651D01*
X400106Y563005D02*
X487651D01*
X400106Y562105D02*
X487651D01*
X400106Y561205D02*
X487651D01*
X400106Y560305D02*
X487651D01*
X400106Y559405D02*
X487651D01*
X400106Y558505D02*
X487651D01*
X400106Y557605D02*
X487651D01*
X400106Y556705D02*
X487651D01*
X400106Y555805D02*
X487651D01*
X400106Y554905D02*
X487651D01*
X400106Y554005D02*
X487651D01*
X400106Y553105D02*
X487651D01*
X415521Y552205D02*
X487651D01*
X416332Y551305D02*
X487651D01*
X416592Y550405D02*
X487651D01*
X416498Y549505D02*
X487651D01*
X415993Y548605D02*
X487651D01*
X474071Y547705D02*
X487651D01*
X474524Y546805D02*
X487651D01*
X474583Y545905D02*
X487651D01*
X474390Y545005D02*
X487651D01*
X476162Y544105D02*
X487651D01*
X476881Y543205D02*
X487651D01*
X477099Y542305D02*
X487651D01*
X476965Y541405D02*
X487651D01*
X476399Y540505D02*
X487651D01*
X400106Y539605D02*
X487651D01*
X417571Y538705D02*
X487651D01*
X418024Y537805D02*
X487651D01*
X418083Y536905D02*
X487651D01*
X417782Y536005D02*
X487651D01*
X416870Y535105D02*
X487651D01*
X400106Y534205D02*
X487651D01*
X400106Y533305D02*
X487651D01*
X400106Y532405D02*
X487651D01*
X400106Y531505D02*
X487651D01*
X400106Y530605D02*
X487651D01*
X400106Y529705D02*
X487651D01*
X400106Y528805D02*
X487651D01*
X400106Y527905D02*
X487651D01*
X400106Y527005D02*
X487651D01*
X400106Y526105D02*
X487651D01*
X400106Y525205D02*
X487651D01*
X400106Y524305D02*
X487651D01*
X400106Y523405D02*
X487651D01*
X400106Y522505D02*
X487651D01*
X400106Y521605D02*
X487651D01*
X400106Y520705D02*
X487651D01*
X400106Y519805D02*
X487651D01*
X400106Y518905D02*
X487651D01*
X400106Y518005D02*
X487651D01*
X400106Y517105D02*
X487651D01*
X400106Y516205D02*
X487513D01*
X400106Y753805D02*
X487113D01*
X400106Y515305D02*
X486613D01*
X400106Y752905D02*
X486213D01*
X400106Y514405D02*
X485713D01*
X400106Y752005D02*
X485313D01*
X400106Y513505D02*
X484813D01*
X400106Y751105D02*
X484413D01*
X400106Y512605D02*
X483913D01*
X400106Y750205D02*
X483513D01*
X400106Y511705D02*
X483013D01*
X400106Y749305D02*
X482613D01*
X400106Y510805D02*
X482113D01*
X400106Y748405D02*
X481713D01*
X457391Y509905D02*
X481213D01*
X400106Y747505D02*
X480813D01*
X400106Y746605D02*
X479913D01*
X400106Y745705D02*
X479013D01*
X400106Y744805D02*
X478113D01*
X400106Y743905D02*
X477213D01*
X400106Y743005D02*
X476313D01*
X400106Y742105D02*
X475413D01*
X400106Y741205D02*
X474513D01*
X400106Y740305D02*
X473613D01*
X471399Y540505D02*
X473002D01*
X400106Y739405D02*
X472713D01*
X400106Y738505D02*
X471813D01*
X400106Y737605D02*
X470913D01*
X400106Y547705D02*
X470331D01*
X400106Y736705D02*
X470013D01*
X428716Y545005D02*
X470012D01*
X400106Y546805D02*
X469878D01*
X427650Y545905D02*
X469819D01*
X400106Y735805D02*
X469113D01*
X429067Y544105D02*
X468240D01*
X400106Y734905D02*
X468213D01*
X400106Y540505D02*
X468002D01*
X429049Y543205D02*
X467521D01*
X427400Y541405D02*
X467437D01*
X400106Y734005D02*
X467313D01*
X428653Y542305D02*
X467303D01*
X400106Y733105D02*
X466413D01*
X400106Y732205D02*
X465513D01*
X400106Y731305D02*
X464613D01*
X400106Y730405D02*
X463713D01*
X400106Y729505D02*
X462813D01*
X400106Y728605D02*
X461913D01*
X400106Y727705D02*
X461013D01*
X400106Y726805D02*
X460113D01*
X400106Y725905D02*
X459213D01*
X400106Y725005D02*
X458313D01*
X400106Y797905D02*
X457564D01*
X400106Y724105D02*
X457413D01*
X444862Y808705D02*
X457340D01*
X417451Y802405D02*
X457210D01*
X445341Y809605D02*
X456861D01*
X445383Y810505D02*
X456819D01*
X400106Y723205D02*
X456513D01*
X400106Y798805D02*
X456261D01*
X416085Y801505D02*
X456174D01*
X400106Y799705D02*
X455856D01*
X400106Y800605D02*
X455832D01*
X400106Y722305D02*
X455613D01*
X445017Y811405D02*
X455519D01*
X400106Y815905D02*
X455269D01*
X400106Y479305D02*
X454881D01*
X441251Y668305D02*
X454828D01*
X400106Y721405D02*
X454713D01*
X441251Y680005D02*
X454494D01*
X400106Y491005D02*
X454448D01*
X443604Y812305D02*
X454267D01*
X400106Y506305D02*
X454229D01*
X400106Y815005D02*
X454204D01*
X400106Y509905D02*
X454011D01*
X414389Y813205D02*
X453871D01*
X400106Y814105D02*
X453853D01*
X400106Y720505D02*
X453813D01*
X400106Y507205D02*
X453517D01*
X400106Y509005D02*
X453440D01*
X400106Y480205D02*
X453413D01*
X441251Y669205D02*
X453384D01*
X400106Y508105D02*
X453303D01*
X441251Y679105D02*
X453193D01*
X400106Y490105D02*
X453166D01*
X400106Y719605D02*
X452913D01*
X400106Y481105D02*
X452505D01*
X441251Y670105D02*
X452485D01*
X441251Y678205D02*
X452355D01*
X400106Y489205D02*
X452337D01*
X400106Y718705D02*
X452013D01*
X400106Y482005D02*
X451879D01*
X441251Y671005D02*
X451865D01*
X441251Y677305D02*
X451775D01*
X400106Y488305D02*
X451762D01*
X400106Y482905D02*
X451448D01*
X441251Y671905D02*
X451439D01*
X441251Y676405D02*
X451379D01*
X400106Y487405D02*
X451370D01*
X400106Y483805D02*
X451172D01*
X441251Y672805D02*
X451167D01*
X441251Y675505D02*
X451132D01*
X400106Y486505D02*
X451127D01*
X400106Y717805D02*
X451113D01*
X400106Y484705D02*
X451031D01*
X441251Y673705D02*
X451029D01*
X441251Y674605D02*
X451018D01*
X400106Y485605D02*
X451016D01*
X400106Y716905D02*
X450213D01*
X400106Y716005D02*
X449313D01*
X400106Y715105D02*
X448413D01*
X400106Y714205D02*
X447513D01*
X400106Y713305D02*
X446613D01*
X400106Y712405D02*
X445713D01*
X400106Y711505D02*
X444813D01*
X400106Y710605D02*
X443913D01*
X400106Y709705D02*
X443013D01*
X416734Y812305D02*
X442849D01*
X400106Y708805D02*
X442113D01*
X419371Y808705D02*
X441592D01*
X417835Y811405D02*
X441437D01*
X400106Y707905D02*
X441213D01*
X419051Y809605D02*
X441113D01*
X418558Y810505D02*
X441071D01*
X400106Y707005D02*
X440313D01*
X400106Y706105D02*
X439413D01*
X400106Y705205D02*
X438520D01*
X422400Y590905D02*
X438155D01*
X400106Y704305D02*
X438154D01*
X400106Y703405D02*
X438151D01*
X400106Y702505D02*
X438151D01*
X400106Y701605D02*
X438151D01*
X400106Y700705D02*
X438151D01*
X400106Y699805D02*
X438151D01*
X400106Y698905D02*
X438151D01*
X400106Y698005D02*
X438151D01*
X400106Y697105D02*
X438151D01*
X400106Y696205D02*
X438151D01*
X400106Y695305D02*
X438151D01*
X400106Y694405D02*
X438151D01*
X400106Y693505D02*
X438151D01*
X400106Y692605D02*
X438151D01*
X400106Y691705D02*
X438151D01*
X400106Y690805D02*
X438151D01*
X400106Y689905D02*
X438151D01*
X400106Y689005D02*
X438151D01*
X400106Y688105D02*
X438151D01*
X400106Y687205D02*
X438151D01*
X400106Y686305D02*
X438151D01*
X400106Y685405D02*
X438151D01*
X400106Y684505D02*
X438151D01*
X400106Y683605D02*
X438151D01*
X400106Y682705D02*
X438151D01*
X400106Y681805D02*
X438151D01*
X400106Y680905D02*
X438151D01*
X400106Y680005D02*
X438151D01*
X400106Y679105D02*
X438151D01*
X400106Y678205D02*
X438151D01*
X400106Y677305D02*
X438151D01*
X400106Y676405D02*
X438151D01*
X400106Y675505D02*
X438151D01*
X400106Y674605D02*
X438151D01*
X400106Y673705D02*
X438151D01*
X400106Y672805D02*
X438151D01*
X400106Y671905D02*
X438151D01*
X400106Y671005D02*
X438151D01*
X400106Y670105D02*
X438151D01*
X400106Y669205D02*
X438151D01*
X400106Y668305D02*
X438151D01*
X400106Y667405D02*
X438151D01*
X400106Y666505D02*
X438151D01*
X400106Y665605D02*
X438151D01*
X400106Y664705D02*
X438151D01*
X400106Y663805D02*
X438151D01*
X400106Y662905D02*
X438151D01*
X400106Y662005D02*
X438151D01*
X400106Y661105D02*
X438151D01*
X400106Y660205D02*
X438151D01*
X400106Y659305D02*
X438151D01*
X400106Y658405D02*
X438151D01*
X400106Y657505D02*
X438151D01*
X400106Y656605D02*
X438151D01*
X400106Y655705D02*
X438151D01*
X400106Y654805D02*
X438151D01*
X400106Y653905D02*
X438151D01*
X400106Y653005D02*
X438151D01*
X400106Y652105D02*
X438151D01*
X400106Y651205D02*
X438151D01*
X400106Y650305D02*
X438151D01*
X400106Y649405D02*
X438151D01*
X400106Y648505D02*
X438151D01*
X400106Y647605D02*
X438151D01*
X400106Y646705D02*
X438151D01*
X400106Y645805D02*
X438151D01*
X400106Y644905D02*
X438151D01*
X400106Y644005D02*
X438151D01*
X400106Y643105D02*
X438151D01*
X400106Y642205D02*
X438151D01*
X400106Y641305D02*
X438151D01*
X400106Y640405D02*
X438151D01*
X400106Y639505D02*
X438151D01*
X400106Y638605D02*
X438151D01*
X400106Y637705D02*
X438151D01*
X400106Y636805D02*
X438151D01*
X400106Y635905D02*
X438151D01*
X400106Y635005D02*
X438151D01*
X400106Y634105D02*
X438151D01*
X400106Y633205D02*
X438151D01*
X400106Y632305D02*
X438151D01*
X400106Y631405D02*
X438151D01*
X400106Y630505D02*
X438151D01*
X400106Y629605D02*
X438151D01*
X400106Y628705D02*
X438151D01*
X400106Y627805D02*
X438151D01*
X400106Y626905D02*
X438151D01*
X400106Y626005D02*
X438151D01*
X400106Y625105D02*
X438151D01*
X400106Y624205D02*
X438151D01*
X400106Y623305D02*
X438151D01*
X400106Y622405D02*
X438151D01*
X400106Y621505D02*
X438151D01*
X400106Y620605D02*
X438151D01*
X400106Y619705D02*
X438151D01*
X400106Y618805D02*
X438151D01*
X400106Y617905D02*
X438151D01*
X400106Y617005D02*
X438151D01*
X400106Y616105D02*
X438151D01*
X400106Y615205D02*
X438151D01*
X400106Y614305D02*
X438151D01*
X400106Y613405D02*
X438151D01*
X400106Y612505D02*
X438151D01*
X400106Y611605D02*
X438151D01*
X400106Y610705D02*
X438151D01*
X400106Y609805D02*
X438151D01*
X400106Y608905D02*
X438151D01*
X400106Y608005D02*
X438151D01*
X400106Y607105D02*
X438151D01*
X400106Y606205D02*
X438151D01*
X400106Y605305D02*
X438151D01*
X400106Y604405D02*
X438151D01*
X400106Y603505D02*
X438151D01*
X400106Y602605D02*
X438151D01*
X400106Y601705D02*
X438151D01*
X400106Y600805D02*
X438151D01*
X400106Y599905D02*
X438151D01*
X400106Y599005D02*
X438151D01*
X400106Y598105D02*
X438151D01*
X400106Y597205D02*
X438151D01*
X400106Y596305D02*
X438151D01*
X422650Y595405D02*
X438151D01*
X423716Y594505D02*
X438060D01*
X423653Y591805D02*
X437491D01*
X424067Y593605D02*
X437462D01*
X424049Y592705D02*
X437301D01*
X421400Y541405D02*
X426001D01*
X421650Y545905D02*
X425751D01*
X422653Y542305D02*
X424748D01*
X422716Y545005D02*
X424686D01*
X423049Y543205D02*
X424353D01*
X423067Y544105D02*
X424335D01*
X400106Y590905D02*
X421001D01*
X400106Y595405D02*
X420751D01*
X416400Y541405D02*
X420001D01*
X416650Y545905D02*
X419751D01*
X400106Y591805D02*
X419748D01*
X400106Y594505D02*
X419686D01*
X400106Y592705D02*
X419353D01*
X400106Y593605D02*
X419335D01*
X417653Y542305D02*
X418748D01*
X417716Y545005D02*
X418686D01*
X400106Y541405D02*
X415001D01*
X400106Y545905D02*
X414751D01*
X400106Y535105D02*
X414531D01*
X400106Y538705D02*
X413831D01*
X400106Y542305D02*
X413748D01*
X400106Y545005D02*
X413686D01*
X400106Y536005D02*
X413620D01*
X400106Y537805D02*
X413378D01*
X400106Y543205D02*
X413353D01*
X400106Y544105D02*
X413335D01*
X400106Y536905D02*
X413319D01*
X400106Y552205D02*
X412880D01*
X400106Y548605D02*
X412408D01*
X400106Y813205D02*
X412383D01*
X400106Y407305D02*
X412176D01*
X400106Y551305D02*
X412070D01*
X400106Y549505D02*
X411904D01*
X400106Y550405D02*
X411809D01*
X400106Y419005D02*
X410766D01*
X400106Y801505D02*
X410687D01*
X400106Y812305D02*
X410038D01*
X400106Y408205D02*
X409980D01*
X400106Y418105D02*
X409365D01*
X400106Y802405D02*
X409321D01*
X400106Y811405D02*
X408937D01*
X400106Y409105D02*
X408901D01*
X400106Y417205D02*
X408502D01*
X400106Y803305D02*
X408473D01*
X400106Y810505D02*
X408213D01*
X400106Y410005D02*
X408189D01*
X400106Y416305D02*
X407916D01*
X400106Y804205D02*
X407896D01*
X400106Y809605D02*
X407720D01*
X400106Y410905D02*
X407704D01*
X400106Y415405D02*
X407524D01*
X400106Y805105D02*
X407511D01*
X400106Y808705D02*
X407401D01*
X400106Y411805D02*
X407391D01*
X400106Y414505D02*
X407288D01*
X400106Y806005D02*
X407281D01*
X400106Y807805D02*
X407228D01*
X400106Y412705D02*
X407223D01*
X400106Y413605D02*
X407190D01*
X400106Y806905D02*
X407188D01*
X393701Y826772D02*
X614173D01*
Y393701*
X393701*
Y826772*
G54D29*
X455701Y508201D02*
X481701D01*
X489201Y515701*
Y682311*
X539291Y732402*
X439701Y592741D02*
Y704201D01*
X520701Y785201*
X588701Y608489D02*
Y617201D01*
X582701Y623201*
X502201*
G54D47*
X458975Y810154D03*
X443227D03*
G74*
X0Y0D02*
M02*
