*
*
G04 PADS 9.5 Build Number: 522968 generated Gerber (RS-274-X) file*
G04 PC Version=2.1*
*
%IN "Pi-Program-Iss1.1.pcb"*%
*
%MOIN*%
*
%FSLAX35Y35*%
*
*
*
*
G04 PC Standard Apertures*
*
*
G04 Thermal Relief Aperture macro.*
%AMTER*
1,1,$1,0,0*
1,0,$1-$2,0,0*
21,0,$3,$4,0,0,45*
21,0,$3,$4,0,0,135*
%
*
*
G04 Annular Aperture macro.*
%AMANN*
1,1,$1,0,0*
1,0,$2,0,0*
%
*
*
G04 Odd Aperture macro.*
%AMODD*
1,1,$1,0,0*
1,0,$1-0.005,0,0*
%
*
*
G04 PC Custom Aperture Macros*
*
*
*
*
*
*
G04 PC Aperture Table*
*
%ADD010C,0.001*%
%ADD014C,0.1*%
%ADD025C,0.01575*%
%ADD026C,0.024*%
%ADD027C,0.01*%
%ADD029C,0.007*%
%ADD043R,0.03X0.038*%
%ADD046R,0.038X0.03*%
%ADD047C,0.01969*%
%ADD057R,0.1X0.06*%
%ADD087R,0.02362X0.04724*%
%ADD091C,0.02362*%
%ADD111R,0.01575X0.07087*%
%ADD112R,0.04331X0.03937*%
%ADD113R,0.05315X0.05906*%
%ADD114R,0.05906X0.05512*%
%ADD115R,0.028X0.04*%
%ADD119C,0.04*%
%ADD136R,0.02756X0.00787*%
%ADD138C,0.00595*%
*
*
*
*
G04 PC Circuitry*
G04 Layer Name Pi-Program-Iss1.1.pcb - circuitry*
%LPD*%
*
*
G04 PC Custom Flashes*
G04 Layer Name Pi-Program-Iss1.1.pcb - flashes*
%LPD*%
*
*
G04 PC Circuitry*
G04 Layer Name Pi-Program-Iss1.1.pcb - circuitry*
%LPD*%
*
G54D10*
G54D14*
G01X594488Y807087D03*
Y413386D03*
X413386Y807087D03*
Y413386D03*
G54D25*
X543031Y746378D02*
Y751181D01*
Y760236D02*
Y796175D01*
X543191Y796335*
X445983Y801201D02*
Y807319D01*
X456219Y813701D02*
Y807319D01*
Y802201*
X458201Y800219*
G54D26*
X416701Y504201D03*
X414201Y518451D03*
X419201D03*
X424701D03*
X429701D03*
X455701Y508201D03*
X414201Y524451D03*
X444701Y553371D03*
Y558095D03*
X420701Y543701D03*
X415701D03*
X426701D03*
X414201Y550201D03*
X415701Y537201D03*
X466701Y532899D03*
Y558095D03*
Y551796D03*
X469701Y542201D03*
X474701D03*
X472201Y546201D03*
X579201Y556521D03*
Y551796D03*
Y547072D03*
Y542347D03*
Y537623D03*
Y532899D03*
X599701D03*
Y537623D03*
Y542347D03*
Y547072D03*
Y551796D03*
Y556521D03*
X421701Y593201D03*
X413201Y567701D03*
X417701Y569201D03*
X429701D03*
X423701D03*
X413201Y561201D03*
X439701Y592741D03*
X444701Y562820D03*
Y567544D03*
Y575418D03*
Y583292D03*
X453201Y591167D03*
X466701Y584867D03*
Y576993D03*
Y569119D03*
Y562820D03*
Y592701D03*
X579201Y565969D03*
Y561245D03*
Y580143D03*
Y584867D03*
Y589592D03*
Y594316D03*
X599701Y561245D03*
Y565969D03*
Y570694D03*
Y575418D03*
Y580143D03*
Y584867D03*
Y589592D03*
Y594316D03*
X421601Y608701D03*
X444701Y599041D03*
Y603765D03*
Y608489D03*
X466701Y599041D03*
Y603701D03*
Y608701D03*
X502201Y623201D03*
X579201Y599041D03*
X586701Y603765D03*
X599701Y599041D03*
Y603765D03*
X588701Y608489D03*
X543031Y746378D03*
X539291Y732402D03*
X520701Y785201D03*
X535354Y764528D03*
X551201Y792701D03*
X529701D03*
X445983Y801201D03*
X458201Y800219D03*
X456219Y813701D03*
G54D27*
X411701Y551701D02*
X433083D01*
X437083Y549701*
X445201*
Y539201*
X437494*
X433741Y535449*
X411701Y535206*
Y551701*
X467701Y549201D02*
X476201D01*
Y538701*
X467701*
Y549201*
X411701Y559701D02*
Y570701D01*
X431701*
Y559701*
X411701*
X412201Y516201D02*
Y527201D01*
X432201*
Y516201*
X412201*
X411701Y549605D02*
X445201D01*
X411701Y548705D02*
X445201D01*
X411701Y547805D02*
X445201D01*
X411701Y546905D02*
X445201D01*
X411701Y546005D02*
X445201D01*
X411701Y545105D02*
X445201D01*
X411701Y544205D02*
X445201D01*
X411701Y543305D02*
X445201D01*
X411701Y542405D02*
X445201D01*
X411701Y541505D02*
X445201D01*
X411701Y540605D02*
X445201D01*
X411701Y539705D02*
X445201D01*
X411701Y538805D02*
X437098D01*
X411701Y537905D02*
X436198D01*
X411701Y550505D02*
X435474D01*
X411701Y537005D02*
X435298D01*
X411701Y536105D02*
X434398D01*
X411701Y551405D02*
X433674D01*
X467701Y548599D02*
X476201D01*
X467701Y547699D02*
X476201D01*
X467701Y546799D02*
X476201D01*
X467701Y545899D02*
X476201D01*
X467701Y544999D02*
X476201D01*
X467701Y544099D02*
X476201D01*
X467701Y543199D02*
X476201D01*
X467701Y542299D02*
X476201D01*
X467701Y541399D02*
X476201D01*
X467701Y540499D02*
X476201D01*
X467701Y539599D02*
X476201D01*
X411701Y570499D02*
X431701D01*
X411701Y569599D02*
X431701D01*
X411701Y568699D02*
X431701D01*
X411701Y567799D02*
X431701D01*
X411701Y566899D02*
X431701D01*
X411701Y565999D02*
X431701D01*
X411701Y565099D02*
X431701D01*
X411701Y564199D02*
X431701D01*
X411701Y563299D02*
X431701D01*
X411701Y562399D02*
X431701D01*
X411701Y561499D02*
X431701D01*
X411701Y560599D02*
X431701D01*
X412201Y526999D02*
X432201D01*
X412201Y526099D02*
X432201D01*
X412201Y525199D02*
X432201D01*
X412201Y524299D02*
X432201D01*
X412201Y523399D02*
X432201D01*
X412201Y522499D02*
X432201D01*
X412201Y521599D02*
X432201D01*
X412201Y520699D02*
X432201D01*
X412201Y519799D02*
X432201D01*
X412201Y518899D02*
X432201D01*
X412201Y517999D02*
X432201D01*
X412201Y517099D02*
X432201D01*
X393701Y826772D02*
X614173D01*
Y393701*
X393701*
Y826772*
G54D29*
X416701Y504201D02*
X421601D01*
X414201Y518451D02*
X419201D01*
X424701*
X429701*
X427801Y504201D02*
X435353D01*
X440353Y509201*
Y530701*
X445701Y536048*
X449648*
X414201Y524451D02*
X423701D01*
X444701Y553371D02*
X449648D01*
X444701Y558095D02*
X449648D01*
X426701Y543701D02*
X420701D01*
X415701*
X414201Y550201D02*
X423701D01*
Y548951*
X415701Y537201D02*
Y543701D01*
X427766Y548647D02*
X426847D01*
X433147Y542347*
X449648*
X426847Y548647D02*
X425922D01*
X430647Y543922*
X449648*
Y548647D02*
X427766D01*
X433051*
X436201Y545497*
X449648*
X423701Y548951D02*
X426701Y548451D01*
Y543701*
X423701Y548951D02*
X428523Y548451D01*
X436201Y540773*
X449648*
X423701Y548951D02*
X433322Y548451D01*
X434701Y547072*
X449648*
X423701Y548951D02*
Y548647D01*
X425922*
X423701Y524451D02*
X429701Y518451D01*
X470201Y542201D02*
X474701D01*
X469701D02*
Y542347D01*
X472554*
X476201Y538701*
X469701Y542201D02*
X470201D01*
X472201Y546201D02*
X474701Y542201D01*
X467701Y549201D02*
X469201D01*
X472201Y546201*
X474701Y542201D02*
X471201Y543701D01*
X476201Y538701*
X461774Y532899D02*
X466701D01*
X449648Y534473D02*
X453701D01*
X455701Y532473*
Y508201*
X461774Y542347D02*
X469701D01*
Y542201*
X461774Y543922D02*
X470201D01*
Y542201*
X461774Y548647D02*
X471201D01*
X472201Y546201*
X461774Y551796D02*
X466701D01*
X461774Y558095D02*
X466701D01*
X579201Y556521D02*
X583191D01*
X579201Y551796D02*
X583191D01*
X579201Y547072D02*
X583191D01*
X579201Y542347D02*
X583191D01*
X579201Y537623D02*
X583191D01*
X579201Y532899D02*
X583191D01*
X595317D02*
X599701D01*
X595317Y537623D02*
X599701D01*
X595317Y542347D02*
X599701D01*
X595317Y547072D02*
X599701D01*
X595317Y551796D02*
X599701D01*
X595317Y556521D02*
X599701D01*
X417701Y569201D02*
X423701D01*
X429701*
X413201Y561201D02*
X423701D01*
Y562451*
X413201Y561201D02*
Y567701D01*
X439701Y592741D02*
X449648D01*
X444701Y562820D02*
X449648D01*
X444701Y567544D02*
X449648D01*
X444701Y575418D02*
X449648D01*
X444701Y583292D02*
X449648D01*
X421601Y597701D02*
X421701D01*
Y593201*
X423701Y562451D02*
Y569201D01*
X461774Y562820D02*
X466701D01*
X461774Y569119D02*
X466701D01*
X461774Y576993D02*
X466701D01*
X461774Y584867D02*
X466701D01*
X449648Y591167D02*
X453201D01*
X461774Y592741D02*
Y592701D01*
X466701*
X579201Y565969D02*
X583191D01*
X579201Y561245D02*
X583191D01*
X579201Y580143D02*
X583191D01*
X579201Y584867D02*
X583191D01*
X579201Y589592D02*
X583191D01*
X579201Y594316D02*
X583191D01*
X595317Y561245D02*
X599701D01*
X595317Y565969D02*
X599701D01*
X595317Y570694D02*
X599701D01*
X595317Y575418D02*
X599701D01*
X595317Y580143D02*
X599701D01*
X595317Y584867D02*
X599701D01*
X595317Y589592D02*
X599701D01*
X595317Y594316D02*
X599701D01*
X421601Y608701D02*
Y604712D01*
X444701Y599041D02*
X449648D01*
X444701Y603765D02*
X449648D01*
X444701Y608489D02*
X449648D01*
X427701Y619201D02*
X431701Y623201D01*
X502201*
X427701Y619201D02*
Y597801D01*
X427801Y597701*
X461774Y603765D02*
Y603701D01*
X466701*
X461774Y608489D02*
Y608701D01*
X466701*
X461774Y599041D02*
X466701D01*
X579201D02*
X583191D01*
X595317D02*
X599701D01*
X595317Y603765D02*
X599701D01*
X583191D02*
X586701D01*
X583191Y608489D02*
X588701D01*
X539291Y732402D02*
Y751181D01*
X520558Y796386D02*
X520701Y796029D01*
X529660Y804260D02*
X529701Y804301D01*
G54D43*
X551201Y798101D03*
Y804301D03*
X529701Y798101D03*
Y804301D03*
G54D46*
X427801Y504201D03*
X421601D03*
Y597701D03*
X427801D03*
Y604712D03*
X421601D03*
G54D47*
X458975Y810154D03*
X443227D03*
G54D57*
X423701Y537951D03*
Y524451D03*
Y548951D03*
Y562451D03*
G54D87*
X535551Y751181D03*
X539291D03*
X543031D03*
Y760236D03*
X535354D03*
G54D91*
X520701Y796029D02*
Y785201D01*
X535354Y764528D02*
Y760236D01*
X551201Y792701D02*
Y798101D01*
X529701Y792701D02*
Y798101D01*
X520558Y804260D02*
X529660D01*
X543191Y804209D02*
X551109D01*
X551201Y804301*
G54D111*
X456219Y807319D03*
X453660D03*
X451101D03*
X448542D03*
X445983D03*
G54D112*
X457006Y823146D03*
X445195D03*
G54D113*
X467144Y818618D03*
X435057D03*
G54D114*
X463896Y807988D03*
X438306D03*
G54D115*
X543191Y796335D03*
Y804209D03*
X520558Y796386D03*
Y804260D03*
G54D119*
X413386Y787402D03*
X594488D03*
X413386Y433071D03*
G54D136*
X449648Y608489D03*
X461774Y602190D03*
Y531324D03*
X583191Y608489D03*
X595317D03*
X583191Y606915D03*
X595317D03*
X583191Y605340D03*
X595317D03*
X583191Y603765D03*
X595317D03*
X583191Y602190D03*
X449648Y600615D03*
X595317Y602190D03*
X583191Y600615D03*
X595317D03*
X583191Y599041D03*
X595317D03*
X583191Y597466D03*
X595317D03*
X583191Y595891D03*
X595317D03*
X583191Y594316D03*
X461774Y600615D03*
X595317Y594316D03*
X583191Y592741D03*
X595317D03*
X583191Y591167D03*
X595317D03*
X583191Y589592D03*
X595317D03*
X583191Y588017D03*
X595317D03*
X583191Y586442D03*
X449648Y599041D03*
X595317Y586442D03*
X583191Y584867D03*
X595317D03*
X583191Y583292D03*
X595317D03*
X583191Y581717D03*
X595317D03*
X583191Y580143D03*
X595317D03*
X583191Y578568D03*
X461774Y599041D03*
X595317Y578568D03*
X583191Y576993D03*
X595317D03*
X583191Y575418D03*
X595317D03*
X583191Y573843D03*
X595317D03*
X583191Y572269D03*
X595317D03*
X583191Y570694D03*
X449648Y597466D03*
X595317Y570694D03*
X583191Y569119D03*
X595317D03*
X583191Y567544D03*
X595317D03*
X583191Y565969D03*
X595317D03*
X583191Y564395D03*
X595317D03*
X583191Y562820D03*
X461774Y597466D03*
X595317Y562820D03*
X583191Y561245D03*
X595317D03*
X583191Y559670D03*
X595317D03*
X583191Y558095D03*
X595317D03*
X583191Y556521D03*
X595317D03*
X583191Y554946D03*
X449648Y595891D03*
X595317Y554946D03*
X583191Y553371D03*
X595317D03*
X583191Y551796D03*
X595317D03*
X583191Y550221D03*
X595317D03*
X583191Y548647D03*
X595317D03*
X583191Y547072D03*
X461774Y595891D03*
X595317Y547072D03*
X583191Y545497D03*
X595317D03*
X583191Y543922D03*
X595317D03*
X583191Y542347D03*
X595317D03*
X583191Y540773D03*
X595317D03*
X583191Y539198D03*
X449648Y594316D03*
X595317Y539198D03*
X583191Y537623D03*
X595317D03*
X583191Y536048D03*
X595317D03*
X583191Y534473D03*
X595317D03*
X583191Y532899D03*
X595317D03*
X583191Y531324D03*
X461774Y608489D03*
Y594316D03*
X595317Y531324D03*
X449648Y592741D03*
X461774D03*
X449648Y591167D03*
X461774D03*
X449648Y589592D03*
X461774D03*
X449648Y588017D03*
X461774D03*
X449648Y586442D03*
Y606915D03*
X461774Y586442D03*
X449648Y584867D03*
X461774D03*
X449648Y583292D03*
X461774D03*
X449648Y581717D03*
X461774D03*
X449648Y580143D03*
X461774D03*
X449648Y578568D03*
X461774Y606915D03*
Y578568D03*
X449648Y576993D03*
X461774D03*
X449648Y575418D03*
X461774D03*
X449648Y573843D03*
X461774D03*
X449648Y572269D03*
X461774D03*
X449648Y570694D03*
Y605340D03*
X461774Y570694D03*
X449648Y569119D03*
X461774D03*
X449648Y567544D03*
X461774D03*
X449648Y565969D03*
X461774D03*
X449648Y564395D03*
X461774D03*
X449648Y562820D03*
X461774Y605340D03*
Y562820D03*
X449648Y561245D03*
X461774D03*
X449648Y559670D03*
X461774D03*
X449648Y558095D03*
X461774D03*
X449648Y556521D03*
X461774D03*
X449648Y554946D03*
Y603765D03*
X461774Y554946D03*
X449648Y553371D03*
X461774D03*
X449648Y551796D03*
X461774D03*
X449648Y550221D03*
X461774D03*
X449648Y548647D03*
X461774D03*
X449648Y547072D03*
X461774Y603765D03*
Y547072D03*
X449648Y545497D03*
X461774D03*
X449648Y543922D03*
X461774D03*
X449648Y542347D03*
X461774D03*
X449648Y540773D03*
X461774D03*
X449648Y539198D03*
Y602190D03*
X461774Y539198D03*
X449648Y537623D03*
X461774D03*
X449648Y536048D03*
X461774D03*
X449648Y534473D03*
X461774D03*
X449648Y532899D03*
X461774D03*
X449648Y531324D03*
G54D138*
X453028Y748289D02*
X525848Y675469D01*
Y616469*
X535543Y606775*
X580561*
X580701Y606915*
X583191*
X453028Y748289D02*
Y802069D01*
X453660Y802701*
Y807319*
X451101D02*
Y802701D01*
X451733Y802069*
Y747753*
X524553Y674933*
Y615933*
X535006Y605480*
X580561*
X580701Y605340*
X583191*
X0Y0D02*
M02*
