*
*
G04 PADS 9.5 Build Number: 522968 generated Gerber (RS-274-X) file*
G04 PC Version=2.1*
*
%IN "Pi-Program-Iss1.1.pcb"*%
*
%MOIN*%
*
%FSLAX35Y35*%
*
*
*
*
G04 PC Standard Apertures*
*
*
G04 Thermal Relief Aperture macro.*
%AMTER*
1,1,$1,0,0*
1,0,$1-$2,0,0*
21,0,$3,$4,0,0,45*
21,0,$3,$4,0,0,135*
%
*
*
G04 Annular Aperture macro.*
%AMANN*
1,1,$1,0,0*
1,0,$2,0,0*
%
*
*
G04 Odd Aperture macro.*
%AMODD*
1,1,$1,0,0*
1,0,$1-0.005,0,0*
%
*
*
G04 PC Custom Aperture Macros*
*
*
*
*
*
*
G04 PC Aperture Table*
*
%ADD010C,0.001*%
%ADD027C,0.01*%
*
*
*
*
G04 PC Circuitry*
G04 Layer Name Pi-Program-Iss1.1.pcb - circuitry*
%LPD*%
*
*
G04 PC Custom Flashes*
G04 Layer Name Pi-Program-Iss1.1.pcb - flashes*
%LPD*%
*
*
G04 PC Circuitry*
G04 Layer Name Pi-Program-Iss1.1.pcb - circuitry*
%LPD*%
*
G54D10*
G01X393701Y826772D02*
X393703D01*
X614173D02*
X614176D01*
X614173Y393701D02*
X614176D01*
X614173Y826772D02*
X614176D01*
G54D27*
X283974Y857263D02*
Y852263D01*
X283746Y851326*
X283519Y851013*
X283064Y850701*
X282610*
X282155Y851013*
X281928Y851326*
X281701Y852263*
Y852888*
X286019Y857263D02*
Y850701D01*
X288746*
X294201Y855701D02*
X293974Y856326D01*
X293519Y856951*
X293064Y857263*
X292155*
X291701Y856951*
X291246Y856326*
X291019Y855701*
X290792Y854763*
Y853201*
X291019Y852263*
X291246Y851638*
X291701Y851013*
X292155Y850701*
X293064*
X293519Y851013*
X293974Y851638*
X294201Y852263*
X296701Y857263D02*
X299201D01*
X297837Y854763*
X298519*
X298974Y854451*
X299201Y854138*
X299428Y853201*
Y852576*
X299201Y851638*
X298746Y851013*
X298064Y850701*
X297383*
X296701Y851013*
X296474Y851326*
X296246Y851951*
X301928Y857263D02*
X304428D01*
X303064Y854763*
X303746*
X304201Y854451*
X304428Y854138*
X304655Y853201*
Y852576*
X304428Y851638*
X303974Y851013*
X303292Y850701*
X302610*
X301928Y851013*
X301701Y851326*
X301474Y851951*
X306701Y856013D02*
X307155Y856326D01*
X307837Y857263*
Y850701*
X310337Y857263D02*
X312837D01*
X311474Y854763*
X312155*
X312610Y854451*
X312837Y854138*
X313064Y853201*
Y852576*
X312837Y851638*
X312383Y851013*
X311701Y850701*
X311019*
X310337Y851013*
X310110Y851326*
X309883Y851951*
X328746Y856326D02*
X328292Y856951D01*
X327610Y857263*
X326701*
X326019Y856951*
X325564Y856326*
Y855701*
X325792Y855076*
X326019Y854763*
X326474Y854451*
X327837Y853826*
X328292Y853513*
X328519Y853201*
X328746Y852576*
Y851638*
X328292Y851013*
X327610Y850701*
X326701*
X326019Y851013*
X325564Y851638*
X331474Y857263D02*
Y851951D01*
X331701Y851013*
X332155Y850701*
X332610*
X330792Y855076D02*
X332383D01*
X337383D02*
Y850701D01*
Y854138D02*
X336928Y854763D01*
X336474Y855076*
X335792*
X335337Y854763*
X334883Y854138*
X334655Y853201*
Y852576*
X334883Y851638*
X335337Y851013*
X335792Y850701*
X336474*
X336928Y851013*
X337383Y851638*
X342155Y854138D02*
X341701Y854763D01*
X341246Y855076*
X340564*
X340110Y854763*
X339655Y854138*
X339428Y853201*
Y852576*
X339655Y851638*
X340110Y851013*
X340564Y850701*
X341246*
X341701Y851013*
X342155Y851638*
X344201Y857263D02*
Y850701D01*
X346474Y855076D02*
X344201Y851951D01*
X345110Y853201D02*
X346701Y850701D01*
X348746Y855076D02*
Y851951D01*
X348974Y851013*
X349428Y850701*
X350110*
X350564Y851013*
X351246Y851951*
Y855076D02*
Y850701D01*
X353292Y855076D02*
Y848513D01*
Y854138D02*
X353746Y854763D01*
X354201Y855076*
X354883*
X355337Y854763*
X355792Y854138*
X356019Y853201*
Y852576*
X355792Y851638*
X355337Y851013*
X354883Y850701*
X354201*
X353746Y851013*
X353292Y851638*
X236383Y840763D02*
X234110D01*
X233883Y837951*
X234110Y838263*
X234792Y838576*
X235474*
X236155Y838263*
X236610Y837638*
X236837Y836701*
X236610Y836076*
X236383Y835138*
X235928Y834513*
X235246Y834201*
X234564*
X233883Y834513*
X233655Y834826*
X233428Y835451*
X239110Y834826D02*
X238883Y834513D01*
X239110Y834201*
X239337Y834513*
X239110Y834826*
X244337Y838576D02*
X244110Y837638D01*
X243655Y837013*
X242974Y836701*
X242746*
X242064Y837013*
X241610Y837638*
X241383Y838576*
Y838888*
X241610Y839826*
X242064Y840451*
X242746Y840763*
X242974*
X243655Y840451*
X244110Y839826*
X244337Y838576*
Y837013*
X244110Y835451*
X243655Y834513*
X242974Y834201*
X242519*
X241837Y834513*
X241610Y835138*
X249337Y840763D02*
X247064D01*
X246837Y837951*
X247064Y838263*
X247746Y838576*
X248428*
X249110Y838263*
X249564Y837638*
X249792Y836701*
X249564Y836076*
X249337Y835138*
X248883Y834513*
X248201Y834201*
X247519*
X246837Y834513*
X246610Y834826*
X246383Y835451*
X251837Y838576D02*
Y834201D01*
Y837326D02*
X252519Y838263D01*
X252974Y838576*
X253655*
X254110Y838263*
X254337Y837326*
Y834201*
Y837326D02*
X255019Y838263D01*
X255474Y838576*
X256155*
X256610Y838263*
X256837Y837326*
Y834201*
X258883Y840763D02*
X259110Y840451D01*
X259337Y840763*
X259110Y841076*
X258883Y840763*
X259110Y838576D02*
Y834201D01*
X261383Y840763D02*
Y834201D01*
X268655Y842013D02*
Y832013D01*
X279110Y840763D02*
X276837Y834201D01*
X275928Y840763D02*
X279110D01*
X281155Y838576D02*
Y834201D01*
Y837326D02*
X281837Y838263D01*
X282292Y838576*
X282974*
X283428Y838263*
X283655Y837326*
Y834201*
Y837326D02*
X284337Y838263D01*
X284792Y838576*
X285474*
X285928Y838263*
X286155Y837326*
Y834201*
X288201Y840763D02*
X288428Y840451D01*
X288655Y840763*
X288428Y841076*
X288201Y840763*
X288428Y838576D02*
Y834201D01*
X290701Y840763D02*
Y834201D01*
X297974Y837951D02*
X302064D01*
X297974Y836076D02*
X302064D01*
X312292Y838576D02*
X312064Y837638D01*
X311610Y837013*
X310928Y836701*
X310701*
X310019Y837013*
X309564Y837638*
X309337Y838576*
Y838888*
X309564Y839826*
X310019Y840451*
X310701Y840763*
X310928*
X311610Y840451*
X312064Y839826*
X312292Y838576*
Y837013*
X312064Y835451*
X311610Y834513*
X310928Y834201*
X310474*
X309792Y834513*
X309564Y835138*
X315701Y840763D02*
X315019Y840451D01*
X314564Y839513*
X314337Y837951*
Y837013*
X314564Y835451*
X315019Y834513*
X315701Y834201*
X316155*
X316837Y834513*
X317292Y835451*
X317519Y837013*
Y837951*
X317292Y839513*
X316837Y840451*
X316155Y840763*
X315701*
X319564D02*
Y834201D01*
Y840763D02*
X321610D01*
X322292Y840451*
X322519Y840138*
X322746Y839513*
Y838888*
X322519Y838263*
X322292Y837951*
X321610Y837638*
X319564*
X321155D02*
X322746Y834201D01*
X330019Y840763D02*
Y834201D01*
Y840763D02*
X332974D01*
X330019Y837638D02*
X331837D01*
X330019Y834201D02*
X332974D01*
X338428Y839201D02*
X338201Y839826D01*
X337746Y840451*
X337292Y840763*
X336383*
X335928Y840451*
X335474Y839826*
X335246Y839201*
X335019Y838263*
Y836701*
X335246Y835763*
X335474Y835138*
X335928Y834513*
X336383Y834201*
X337292*
X337746Y834513*
X338201Y835138*
X338428Y835763*
X345701Y840763D02*
Y836076D01*
X345928Y835138*
X346383Y834513*
X347064Y834201*
X347519*
X348201Y834513*
X348655Y835138*
X348883Y836076*
Y840763*
X354110Y839826D02*
X353655Y840451D01*
X352974Y840763*
X352064*
X351383Y840451*
X350928Y839826*
Y839201*
X351155Y838576*
X351383Y838263*
X351837Y837951*
X353201Y837326*
X353655Y837013*
X353883Y836701*
X354110Y836076*
Y835138*
X353655Y834513*
X352974Y834201*
X352064*
X351383Y834513*
X350928Y835138*
X356155Y840763D02*
Y834201D01*
Y840763D02*
X358201D01*
X358883Y840451*
X359110Y840138*
X359337Y839513*
Y838888*
X359110Y838263*
X358883Y837951*
X358201Y837638*
X356155D02*
X358201D01*
X358883Y837326*
X359110Y837013*
X359337Y836388*
Y835451*
X359110Y834826*
X358883Y834513*
X358201Y834201*
X356155*
X590488Y807087D02*
X598488D01*
X594488Y803087D02*
Y811087D01*
X590488Y413386D02*
X598488D01*
X594488Y409386D02*
Y417386D01*
X409386Y807087D02*
X417386D01*
X413386Y803087D02*
Y811087D01*
X409386Y413386D02*
X417386D01*
X413386Y409386D02*
Y417386D01*
X458975Y806154D02*
X462975Y810154D01*
X458975Y814154*
X454975Y810154*
X458975Y806154*
Y810154D02*
Y814154D01*
X443227Y806154D02*
X447227Y810154D01*
X443227Y814154*
X439227Y810154*
X443227Y806154*
Y810154D02*
Y814154D01*
X453522Y670237D02*
X461522D01*
Y678237*
X453522*
Y670237*
X457522Y674237D02*
Y678237D01*
X583443Y670237D02*
X591443D01*
Y678237*
X583443*
Y670237*
X587443Y674237D02*
Y678237D01*
X453522Y481261D02*
X461522D01*
Y489261*
X453522*
Y481261*
X457522Y485261D02*
Y489261D01*
X583443Y481261D02*
X591443D01*
Y489261*
X583443*
Y481261*
X587443Y485261D02*
Y489261D01*
X412701Y500201D02*
X420701Y508201D01*
X412701D02*
X420701Y500201D01*
X410201Y514451D02*
X418201Y522451D01*
X410201D02*
X418201Y514451D01*
X415201D02*
X423201Y522451D01*
X415201D02*
X423201Y514451D01*
X420701D02*
X428701Y522451D01*
X420701D02*
X428701Y514451D01*
X425701D02*
X433701Y522451D01*
X425701D02*
X433701Y514451D01*
X451701Y504201D02*
X459701Y512201D01*
X451701D02*
X459701Y504201D01*
X410201Y520451D02*
X418201Y528451D01*
X410201D02*
X418201Y520451D01*
X410201Y546201D02*
X418201Y554201D01*
X410201D02*
X418201Y546201D01*
X440701Y549371D02*
X448701Y557371D01*
X440701D02*
X448701Y549371D01*
X440701Y554095D02*
X448701Y562095D01*
X440701D02*
X448701Y554095D01*
X422701Y539701D02*
X430701Y547701D01*
X422701D02*
X430701Y539701D01*
X416701D02*
X424701Y547701D01*
X416701D02*
X424701Y539701D01*
X411701D02*
X419701Y547701D01*
X411701D02*
X419701Y539701D01*
X411701Y533201D02*
X419701Y541201D01*
X411701D02*
X419701Y533201D01*
X462701Y528899D02*
X470701Y536899D01*
X462701D02*
X470701Y528899D01*
X462701Y554095D02*
X470701Y562095D01*
X462701D02*
X470701Y554095D01*
X462701Y547796D02*
X470701Y555796D01*
X462701D02*
X470701Y547796D01*
X468201Y542201D02*
X476201Y550201D01*
X468201D02*
X476201Y542201D01*
X465701Y538201D02*
X473701Y546201D01*
X465701D02*
X473701Y538201D01*
X470701D02*
X478701Y546201D01*
X470701D02*
X478701Y538201D01*
X575201Y552521D02*
X583201Y560521D01*
X575201D02*
X583201Y552521D01*
X575201Y547796D02*
X583201Y555796D01*
X575201D02*
X583201Y547796D01*
X575201Y543072D02*
X583201Y551072D01*
X575201D02*
X583201Y543072D01*
X575201Y538347D02*
X583201Y546347D01*
X575201D02*
X583201Y538347D01*
X575201Y533623D02*
X583201Y541623D01*
X575201D02*
X583201Y533623D01*
X575201Y528899D02*
X583201Y536899D01*
X575201D02*
X583201Y528899D01*
X595701D02*
X603701Y536899D01*
X595701D02*
X603701Y528899D01*
X595701Y533623D02*
X603701Y541623D01*
X595701D02*
X603701Y533623D01*
X595701Y538347D02*
X603701Y546347D01*
X595701D02*
X603701Y538347D01*
X595701Y543072D02*
X603701Y551072D01*
X595701D02*
X603701Y543072D01*
X595701Y547796D02*
X603701Y555796D01*
X595701D02*
X603701Y547796D01*
X595701Y552521D02*
X603701Y560521D01*
X595701D02*
X603701Y552521D01*
X417701Y589201D02*
X425701Y597201D01*
X417701D02*
X425701Y589201D01*
Y565201D02*
X433701Y573201D01*
X425701D02*
X433701Y565201D01*
X419701D02*
X427701Y573201D01*
X419701D02*
X427701Y565201D01*
X413701D02*
X421701Y573201D01*
X413701D02*
X421701Y565201D01*
X409201Y557201D02*
X417201Y565201D01*
X409201D02*
X417201Y557201D01*
X409201Y563701D02*
X417201Y571701D01*
X409201D02*
X417201Y563701D01*
X435701Y588741D02*
X443701Y596741D01*
X435701D02*
X443701Y588741D01*
X440701Y558820D02*
X448701Y566820D01*
X440701D02*
X448701Y558820D01*
X440701Y563544D02*
X448701Y571544D01*
X440701D02*
X448701Y563544D01*
X440701Y571418D02*
X448701Y579418D01*
X440701D02*
X448701Y571418D01*
X440701Y579292D02*
X448701Y587292D01*
X440701D02*
X448701Y579292D01*
X449201Y587167D02*
X457201Y595167D01*
X449201D02*
X457201Y587167D01*
X462701Y588701D02*
X470701Y596701D01*
X462701D02*
X470701Y588701D01*
X462701Y580867D02*
X470701Y588867D01*
X462701D02*
X470701Y580867D01*
X462701Y572993D02*
X470701Y580993D01*
X462701D02*
X470701Y572993D01*
X462701Y565119D02*
X470701Y573119D01*
X462701D02*
X470701Y565119D01*
X462701Y558820D02*
X470701Y566820D01*
X462701D02*
X470701Y558820D01*
X575201Y561969D02*
X583201Y569969D01*
X575201D02*
X583201Y561969D01*
X575201Y557245D02*
X583201Y565245D01*
X575201D02*
X583201Y557245D01*
X575201Y576143D02*
X583201Y584143D01*
X575201D02*
X583201Y576143D01*
X575201Y580867D02*
X583201Y588867D01*
X575201D02*
X583201Y580867D01*
X575201Y585592D02*
X583201Y593592D01*
X575201D02*
X583201Y585592D01*
X575201Y590316D02*
X583201Y598316D01*
X575201D02*
X583201Y590316D01*
X595701Y557245D02*
X603701Y565245D01*
X595701D02*
X603701Y557245D01*
X595701Y561969D02*
X603701Y569969D01*
X595701D02*
X603701Y561969D01*
X595701Y566694D02*
X603701Y574694D01*
X595701D02*
X603701Y566694D01*
X595701Y571418D02*
X603701Y579418D01*
X595701D02*
X603701Y571418D01*
X595701Y576143D02*
X603701Y584143D01*
X595701D02*
X603701Y576143D01*
X595701Y580867D02*
X603701Y588867D01*
X595701D02*
X603701Y580867D01*
X595701Y585592D02*
X603701Y593592D01*
X595701D02*
X603701Y585592D01*
X595701Y590316D02*
X603701Y598316D01*
X595701D02*
X603701Y590316D01*
X417601Y604701D02*
X425601Y612701D01*
X417601D02*
X425601Y604701D01*
X440701Y595041D02*
X448701Y603041D01*
X440701D02*
X448701Y595041D01*
X440701Y599765D02*
X448701Y607765D01*
X440701D02*
X448701Y599765D01*
X440701Y604489D02*
X448701Y612489D01*
X440701D02*
X448701Y604489D01*
X462701Y595041D02*
X470701Y603041D01*
X462701D02*
X470701Y595041D01*
X462701Y599701D02*
X470701Y607701D01*
X462701D02*
X470701Y599701D01*
X462701Y604701D02*
X470701Y612701D01*
X462701D02*
X470701Y604701D01*
X498201Y619201D02*
X506201Y627201D01*
X498201D02*
X506201Y619201D01*
X575201Y595041D02*
X583201Y603041D01*
X575201D02*
X583201Y595041D01*
X582701Y599765D02*
X590701Y607765D01*
X582701D02*
X590701Y599765D01*
X595701Y595041D02*
X603701Y603041D01*
X595701D02*
X603701Y595041D01*
X595701Y599765D02*
X603701Y607765D01*
X595701D02*
X603701Y599765D01*
X584701Y604489D02*
X592701Y612489D01*
X584701D02*
X592701Y604489D01*
X536701Y743201D02*
X544701Y751201D01*
X536701D02*
X544701Y743201D01*
X516701Y781201D02*
X524701Y789201D01*
X516701D02*
X524701Y781201D01*
X542201Y759461D02*
X550201Y767461D01*
X542201D02*
X550201Y759461D01*
X534142Y771701D02*
X542142Y779701D01*
X534142D02*
X542142Y771701D01*
X547201Y788701D02*
X555201Y796701D01*
X547201D02*
X555201Y788701D01*
X525701D02*
X533701Y796701D01*
X525701D02*
X533701Y788701D01*
X441983Y797201D02*
X449983Y805201D01*
X441983D02*
X449983Y797201D01*
X454201Y796219D02*
X462201Y804219D01*
X454201D02*
X462201Y796219D01*
X452219Y809701D02*
X460219Y817701D01*
X452219D02*
X460219Y809701D01*
X393701Y826772D02*
X614173D01*
Y393701*
X393701*
Y826772*
X364252Y845768D02*
X450502Y759518D01*
X450752Y764768D02*
Y759393D01*
X445252Y759268D02*
X450502D01*
X393701Y846201D02*
X485369D01*
X393701D02*
X403701Y848701D01*
Y843701*
X393701Y846201*
X614173D02*
X522505D01*
X614173D02*
X604173Y843701D01*
Y848701*
X614173Y846201*
X393701Y831772D02*
Y851201D01*
X614173Y831772D02*
Y851201D01*
X491323Y849013D02*
X489051D01*
X488823Y846201*
X489051Y846513*
X489732Y846826*
X490414*
X491096Y846513*
X491551Y845888*
X491778Y844951*
X491551Y844326*
X491323Y843388*
X490869Y842763*
X490187Y842451*
X489505*
X488823Y842763*
X488596Y843076*
X488369Y843701*
X496551Y848076D02*
X496323Y848701D01*
X495642Y849013*
X495187*
X494505Y848701*
X494051Y847763*
X493823Y846201*
Y844638*
X494051Y843388*
X494505Y842763*
X495187Y842451*
X495414*
X496096Y842763*
X496551Y843388*
X496778Y844326*
Y844638*
X496551Y845576*
X496096Y846201*
X495414Y846513*
X495187*
X494505Y846201*
X494051Y845576*
X493823Y844638*
X499051Y843076D02*
X498823Y842763D01*
X499051Y842451*
X499278Y842763*
X499051Y843076*
X502687Y849013D02*
X502005Y848701D01*
X501551Y847763*
X501323Y846201*
Y845263*
X501551Y843701*
X502005Y842763*
X502687Y842451*
X503142*
X503823Y842763*
X504278Y843701*
X504505Y845263*
Y846201*
X504278Y847763*
X503823Y848701*
X503142Y849013*
X502687*
X506551Y846826D02*
Y842451D01*
Y845576D02*
X507232Y846513D01*
X507687Y846826*
X508369*
X508823Y846513*
X509051Y845576*
Y842451*
Y845576D02*
X509732Y846513D01*
X510187Y846826*
X510869*
X511323Y846513*
X511551Y845576*
Y842451*
X513596Y846826D02*
Y842451D01*
Y845576D02*
X514278Y846513D01*
X514732Y846826*
X515414*
X515869Y846513*
X516096Y845576*
Y842451*
Y845576D02*
X516778Y846513D01*
X517232Y846826*
X517914*
X518369Y846513*
X518596Y845576*
Y842451*
X637201Y393701D02*
Y603486D01*
Y393701D02*
X634701Y403701D01*
X639701*
X637201Y393701*
Y826772D02*
Y616986D01*
Y826772D02*
X639701Y816772D01*
X634701*
X637201Y826772*
X619173Y393701D02*
X642201D01*
X619173Y826772D02*
X642201D01*
X621064Y611799D02*
X621519Y612111D01*
X622201Y613049*
Y606486*
X624246Y611799D02*
X624701Y612111D01*
X625383Y613049*
Y606486*
X628792Y613049D02*
X628110Y612736D01*
X627655Y611799*
X627428Y610236*
Y609299*
X627655Y607736*
X628110Y606799*
X628792Y606486*
X629246*
X629928Y606799*
X630383Y607736*
X630610Y609299*
Y610236*
X630383Y611799*
X629928Y612736*
X629246Y613049*
X628792*
X632883Y607111D02*
X632655Y606799D01*
X632883Y606486*
X633110Y606799*
X632883Y607111*
X636519Y613049D02*
X635837Y612736D01*
X635383Y611799*
X635155Y610236*
Y609299*
X635383Y607736*
X635837Y606799*
X636519Y606486*
X636974*
X637655Y606799*
X638110Y607736*
X638337Y609299*
Y610236*
X638110Y611799*
X637655Y612736*
X636974Y613049*
X636519*
X640383Y610861D02*
Y606486D01*
Y609611D02*
X641064Y610549D01*
X641519Y610861*
X642201*
X642655Y610549*
X642883Y609611*
Y606486*
Y609611D02*
X643564Y610549D01*
X644019Y610861*
X644701*
X645155Y610549*
X645383Y609611*
Y606486*
X647428Y610861D02*
Y606486D01*
Y609611D02*
X648110Y610549D01*
X648564Y610861*
X649246*
X649701Y610549*
X649928Y609611*
Y606486*
Y609611D02*
X650610Y610549D01*
X651064Y610861*
X651746*
X652201Y610549*
X652428Y609611*
Y606486*
X277701Y845701D02*
X363951D01*
X393701Y1104252D02*
X651701D01*
X393701Y1080252D02*
X651701D01*
X393701Y1056252D02*
X651701D01*
X393701Y1032252D02*
X651701D01*
X393701Y1008252D02*
X651701D01*
X393701Y984252D02*
X651701D01*
X393701Y1104252D02*
Y984252D01*
X477701Y1104252D02*
Y984252D01*
X513701Y1104252D02*
Y984252D01*
X549701Y1104252D02*
Y984252D01*
X603701Y1104252D02*
Y984252D01*
X651701Y1104252D02*
Y984252D01*
X429201Y1093002D02*
X428655Y1093752D01*
X427837Y1094127*
X426746*
X425928Y1093752*
X425383Y1093002*
Y1092252*
X425655Y1091502*
X425928Y1091127*
X426474Y1090752*
X428110Y1090002*
X428655Y1089627*
X428928Y1089252*
X429201Y1088502*
Y1087377*
X428655Y1086627*
X427837Y1086252*
X426746*
X425928Y1086627*
X425383Y1087377*
X431655Y1094127D02*
Y1086252D01*
X437928Y1094127D02*
X434110Y1086252D01*
Y1094127D02*
X437928D01*
X434110Y1086252D02*
X437928D01*
X440383Y1094127D02*
Y1086252D01*
Y1094127D02*
X443928D01*
X440383Y1090377D02*
X442564D01*
X440383Y1086252D02*
X443928D01*
X487564Y1094127D02*
X487019Y1093752D01*
X486474Y1093002*
X486201Y1092252*
X485928Y1091127*
Y1089252*
X486201Y1088127*
X486474Y1087377*
X487019Y1086627*
X487564Y1086252*
X488655*
X489201Y1086627*
X489746Y1087377*
X490019Y1088127*
X490292Y1089252*
Y1091127*
X490019Y1092252*
X489746Y1093002*
X489201Y1093752*
X488655Y1094127*
X487564*
X488383Y1087752D02*
X490019Y1085502D01*
X494655Y1094127D02*
Y1086252D01*
X492746Y1094127D02*
X496564D01*
X499019D02*
X501201Y1090377D01*
Y1086252*
X503383Y1094127D02*
X501201Y1090377D01*
X525746Y1093002D02*
X525201Y1093752D01*
X524383Y1094127*
X523292*
X522474Y1093752*
X521928Y1093002*
Y1092252*
X522201Y1091502*
X522474Y1091127*
X523019Y1090752*
X524655Y1090002*
X525201Y1089627*
X525474Y1089252*
X525746Y1088502*
Y1087377*
X525201Y1086627*
X524383Y1086252*
X523292*
X522474Y1086627*
X521928Y1087377*
X528201Y1094127D02*
X530383Y1090377D01*
Y1086252*
X532564Y1094127D02*
X530383Y1090377D01*
X535019Y1094127D02*
Y1086252D01*
Y1094127D02*
X537201Y1086252D01*
X539383Y1094127D02*
X537201Y1086252D01*
X539383Y1094127D02*
Y1086252D01*
X561201Y1094127D02*
Y1086252D01*
Y1094127D02*
X563655D01*
X564474Y1093752*
X564746Y1093377*
X565019Y1092627*
Y1091502*
X564746Y1090752*
X564474Y1090377*
X563655Y1090002*
X561201*
X567474Y1094127D02*
Y1086252D01*
X570746*
X575383Y1094127D02*
X573201Y1086252D01*
X575383Y1094127D02*
X577564Y1086252D01*
X574019Y1088877D02*
X576746D01*
X581928Y1094127D02*
Y1086252D01*
X580019Y1094127D02*
X583837D01*
X586292D02*
Y1086252D01*
Y1094127D02*
X589837D01*
X586292Y1090377D02*
X588474D01*
X586292Y1086252D02*
X589837D01*
X592292Y1094127D02*
Y1086252D01*
Y1094127D02*
X594201D01*
X595019Y1093752*
X595564Y1093002*
X595837Y1092252*
X596110Y1091127*
Y1089252*
X595837Y1088127*
X595564Y1087377*
X595019Y1086627*
X594201Y1086252*
X592292*
X620383Y1094127D02*
Y1086252D01*
X618474Y1094127D02*
X622292D01*
X626383D02*
X625837Y1093752D01*
X625292Y1093002*
X625019Y1092252*
X624746Y1091127*
Y1089252*
X625019Y1088127*
X625292Y1087377*
X625837Y1086627*
X626383Y1086252*
X627474*
X628019Y1086627*
X628564Y1087377*
X628837Y1088127*
X629110Y1089252*
Y1091127*
X628837Y1092252*
X628564Y1093002*
X628019Y1093752*
X627474Y1094127*
X626383*
X631564D02*
Y1086252D01*
X634837*
X399974Y1068252D02*
Y1068627D01*
X400246Y1069377*
X400519Y1069752*
X401064Y1070127*
X402155*
X402701Y1069752*
X402974Y1069377*
X403246Y1068627*
Y1067877*
X402974Y1067127*
X402428Y1066002*
X399701Y1062252*
X403519*
X406246Y1063002D02*
X405974Y1062627D01*
X406246Y1062252*
X406519Y1062627*
X406246Y1063002*
X412519Y1070127D02*
X409792D01*
X409519Y1066752*
X409792Y1067127*
X410610Y1067502*
X411428*
X412246Y1067127*
X412792Y1066377*
X413064Y1065252*
X412792Y1064502*
X412519Y1063377*
X411974Y1062627*
X411155Y1062252*
X410337*
X409519Y1062627*
X409246Y1063002*
X408974Y1063752*
X418246Y1070127D02*
X415519Y1064877D01*
X419610*
X418246Y1070127D02*
Y1062252D01*
X495337Y1070127D02*
X492610Y1064877D01*
X496701*
X495337Y1070127D02*
Y1062252D01*
X525701Y1068252D02*
X537701D01*
X531701Y1062252D02*
Y1074252D01*
X561337Y1070127D02*
Y1062252D01*
Y1070127D02*
X565155Y1062252D01*
Y1070127D02*
Y1062252D01*
X569246Y1070127D02*
X568701Y1069752D01*
X568155Y1069002*
X567883Y1068252*
X567610Y1067127*
Y1065252*
X567883Y1064127*
X568155Y1063377*
X568701Y1062627*
X569246Y1062252*
X570337*
X570883Y1062627*
X571428Y1063377*
X571701Y1064127*
X571974Y1065252*
Y1067127*
X571701Y1068252*
X571428Y1069002*
X570883Y1069752*
X570337Y1070127*
X569246*
X611519Y1069002D02*
Y1062252D01*
X609064Y1065627D02*
X613974D01*
X621337Y1071627D02*
X616428Y1059627D01*
X623792Y1065627D02*
X628701D01*
X632792Y1070127D02*
X631974Y1069752D01*
X631428Y1068627*
X631155Y1066752*
Y1065627*
X631428Y1063752*
X631974Y1062627*
X632792Y1062252*
X633337*
X634155Y1062627*
X634701Y1063752*
X634974Y1065627*
Y1066752*
X634701Y1068627*
X634155Y1069752*
X633337Y1070127*
X632792*
X637701Y1063002D02*
X637428Y1062627D01*
X637701Y1062252*
X637974Y1062627*
X637701Y1063002*
X642064Y1070127D02*
X641246Y1069752D01*
X640701Y1068627*
X640428Y1066752*
Y1065627*
X640701Y1063752*
X641246Y1062627*
X642064Y1062252*
X642610*
X643428Y1062627*
X643974Y1063752*
X644246Y1065627*
Y1066752*
X643974Y1068627*
X643428Y1069752*
X642610Y1070127*
X642064*
X401337Y1046127D02*
X400519Y1045752D01*
X399974Y1044627*
X399701Y1042752*
Y1041627*
X399974Y1039752*
X400519Y1038627*
X401337Y1038252*
X401883*
X402701Y1038627*
X403246Y1039752*
X403519Y1041627*
Y1042752*
X403246Y1044627*
X402701Y1045752*
X401883Y1046127*
X401337*
X406246Y1039002D02*
X405974Y1038627D01*
X406246Y1038252*
X406519Y1038627*
X406246Y1039002*
X409519Y1046127D02*
X412519D01*
X410883Y1043127*
X411701*
X412246Y1042752*
X412519Y1042377*
X412792Y1041252*
Y1040502*
X412519Y1039377*
X411974Y1038627*
X411155Y1038252*
X410337*
X409519Y1038627*
X409246Y1039002*
X408974Y1039752*
X416883Y1046127D02*
X416064Y1045752D01*
X415519Y1044627*
X415246Y1042752*
Y1041627*
X415519Y1039752*
X416064Y1038627*
X416883Y1038252*
X417428*
X418246Y1038627*
X418792Y1039752*
X419064Y1041627*
Y1042752*
X418792Y1044627*
X418246Y1045752*
X417428Y1046127*
X416883*
X424246D02*
X421519Y1040877D01*
X425610*
X424246Y1046127D02*
Y1038252D01*
X429428Y1046127D02*
X428610Y1045752D01*
X428337Y1045002*
Y1044252*
X428610Y1043502*
X429155Y1043127*
X430246Y1042752*
X431064Y1042377*
X431610Y1041627*
X431883Y1040877*
Y1039752*
X431610Y1039002*
X431337Y1038627*
X430519Y1038252*
X429428*
X428610Y1038627*
X428337Y1039002*
X428064Y1039752*
Y1040877*
X428337Y1041627*
X428883Y1042377*
X429701Y1042752*
X430792Y1043127*
X431337Y1043502*
X431610Y1044252*
Y1045002*
X431337Y1045752*
X430519Y1046127*
X429428*
X490837D02*
X490019Y1045752D01*
X489746Y1045002*
Y1044252*
X490019Y1043502*
X490564Y1043127*
X491655Y1042752*
X492474Y1042377*
X493019Y1041627*
X493292Y1040877*
Y1039752*
X493019Y1039002*
X492746Y1038627*
X491928Y1038252*
X490837*
X490019Y1038627*
X489746Y1039002*
X489474Y1039752*
Y1040877*
X489746Y1041627*
X490292Y1042377*
X491110Y1042752*
X492201Y1043127*
X492746Y1043502*
X493019Y1044252*
Y1045002*
X492746Y1045752*
X491928Y1046127*
X490837*
X499292D02*
X496564D01*
X496292Y1042752*
X496564Y1043127*
X497383Y1043502*
X498201*
X499019Y1043127*
X499564Y1042377*
X499837Y1041252*
X499564Y1040502*
X499292Y1039377*
X498746Y1038627*
X497928Y1038252*
X497110*
X496292Y1038627*
X496019Y1039002*
X495746Y1039752*
X525701Y1038252D02*
X537701Y1050252D01*
X525701D02*
X537701Y1038252D01*
X558337Y1046127D02*
X560519Y1042377D01*
Y1038252*
X562701Y1046127D02*
X560519Y1042377D01*
X565155Y1046127D02*
Y1038252D01*
Y1046127D02*
X568701D01*
X565155Y1042377D02*
X567337D01*
X565155Y1038252D02*
X568701D01*
X574974Y1045002D02*
X574428Y1045752D01*
X573610Y1046127*
X572519*
X571701Y1045752*
X571155Y1045002*
Y1044252*
X571428Y1043502*
X571701Y1043127*
X572246Y1042752*
X573883Y1042002*
X574428Y1041627*
X574701Y1041252*
X574974Y1040502*
Y1039377*
X574428Y1038627*
X573610Y1038252*
X572519*
X571701Y1038627*
X571155Y1039377*
X611519Y1045002D02*
Y1038252D01*
X609064Y1041627D02*
X613974D01*
X621337Y1047627D02*
X616428Y1035627D01*
X623792Y1041627D02*
X628701D01*
X632792Y1046127D02*
X631974Y1045752D01*
X631428Y1044627*
X631155Y1042752*
Y1041627*
X631428Y1039752*
X631974Y1038627*
X632792Y1038252*
X633337*
X634155Y1038627*
X634701Y1039752*
X634974Y1041627*
Y1042752*
X634701Y1044627*
X634155Y1045752*
X633337Y1046127*
X632792*
X637701Y1039002D02*
X637428Y1038627D01*
X637701Y1038252*
X637974Y1038627*
X637701Y1039002*
X642064Y1046127D02*
X641246Y1045752D01*
X640701Y1044627*
X640428Y1042752*
Y1041627*
X640701Y1039752*
X641246Y1038627*
X642064Y1038252*
X642610*
X643428Y1038627*
X643974Y1039752*
X644246Y1041627*
Y1042752*
X643974Y1044627*
X643428Y1045752*
X642610Y1046127*
X642064*
X399974Y1020252D02*
Y1020627D01*
X400246Y1021377*
X400519Y1021752*
X401064Y1022127*
X402155*
X402701Y1021752*
X402974Y1021377*
X403246Y1020627*
Y1019877*
X402974Y1019127*
X402428Y1018002*
X399701Y1014252*
X403519*
X406246Y1015002D02*
X405974Y1014627D01*
X406246Y1014252*
X406519Y1014627*
X406246Y1015002*
X412792Y1022127D02*
X410064Y1014252D01*
X408974Y1022127D02*
X412792D01*
X495337D02*
X492610Y1016877D01*
X496701*
X495337Y1022127D02*
Y1014252D01*
X525701D02*
X537701D01*
Y1026252*
X525701*
Y1014252*
X531701Y1020252D02*
Y1026252D01*
X561337Y1022127D02*
Y1014252D01*
Y1022127D02*
X565155Y1014252D01*
Y1022127D02*
Y1014252D01*
X569246Y1022127D02*
X568701Y1021752D01*
X568155Y1021002*
X567883Y1020252*
X567610Y1019127*
Y1017252*
X567883Y1016127*
X568155Y1015377*
X568701Y1014627*
X569246Y1014252*
X570337*
X570883Y1014627*
X571428Y1015377*
X571701Y1016127*
X571974Y1017252*
Y1019127*
X571701Y1020252*
X571428Y1021002*
X570883Y1021752*
X570337Y1022127*
X569246*
X611519Y1021002D02*
Y1014252D01*
X609064Y1017627D02*
X613974D01*
X621337Y1023627D02*
X616428Y1011627D01*
X623792Y1017627D02*
X628701D01*
X632792Y1022127D02*
X631974Y1021752D01*
X631428Y1020627*
X631155Y1018752*
Y1017627*
X631428Y1015752*
X631974Y1014627*
X632792Y1014252*
X633337*
X634155Y1014627*
X634701Y1015752*
X634974Y1017627*
Y1018752*
X634701Y1020627*
X634155Y1021752*
X633337Y1022127*
X632792*
X637701Y1015002D02*
X637428Y1014627D01*
X637701Y1014252*
X637974Y1014627*
X637701Y1015002*
X642064Y1022127D02*
X641246Y1021752D01*
X640701Y1020627*
X640428Y1018752*
Y1017627*
X640701Y1015752*
X641246Y1014627*
X642064Y1014252*
X642610*
X643428Y1014627*
X643974Y1015752*
X644246Y1017627*
Y1018752*
X643974Y1020627*
X643428Y1021752*
X642610Y1022127*
X642064*
X401337Y998127D02*
X400519Y997752D01*
X399974Y996627*
X399701Y994752*
Y993627*
X399974Y991752*
X400519Y990627*
X401337Y990252*
X401883*
X402701Y990627*
X403246Y991752*
X403519Y993627*
Y994752*
X403246Y996627*
X402701Y997752*
X401883Y998127*
X401337*
X406246Y991002D02*
X405974Y990627D01*
X406246Y990252*
X406519Y990627*
X406246Y991002*
X412519Y998127D02*
X409792D01*
X409519Y994752*
X409792Y995127*
X410610Y995502*
X411428*
X412246Y995127*
X412792Y994377*
X413064Y993252*
X412792Y992502*
X412519Y991377*
X411974Y990627*
X411155Y990252*
X410337*
X409519Y990627*
X409246Y991002*
X408974Y991752*
X493019Y996252D02*
Y996627D01*
X493292Y997377*
X493564Y997752*
X494110Y998127*
X495201*
X495746Y997752*
X496019Y997377*
X496292Y996627*
Y995877*
X496019Y995127*
X495474Y994002*
X492746Y990252*
X496564*
X531701D02*
X537701Y996252D01*
X531701Y1002252*
X525701Y996252*
X531701Y990252*
Y996252D02*
Y1002252D01*
X561337Y998127D02*
Y990252D01*
Y998127D02*
X565155Y990252D01*
Y998127D02*
Y990252D01*
X569246Y998127D02*
X568701Y997752D01*
X568155Y997002*
X567883Y996252*
X567610Y995127*
Y993252*
X567883Y992127*
X568155Y991377*
X568701Y990627*
X569246Y990252*
X570337*
X570883Y990627*
X571428Y991377*
X571701Y992127*
X571974Y993252*
Y995127*
X571701Y996252*
X571428Y997002*
X570883Y997752*
X570337Y998127*
X569246*
X611519Y997002D02*
Y990252D01*
X609064Y993627D02*
X613974D01*
X621337Y999627D02*
X616428Y987627D01*
X623792Y993627D02*
X628701D01*
X632792Y998127D02*
X631974Y997752D01*
X631428Y996627*
X631155Y994752*
Y993627*
X631428Y991752*
X631974Y990627*
X632792Y990252*
X633337*
X634155Y990627*
X634701Y991752*
X634974Y993627*
Y994752*
X634701Y996627*
X634155Y997752*
X633337Y998127*
X632792*
X637701Y991002D02*
X637428Y990627D01*
X637701Y990252*
X637974Y990627*
X637701Y991002*
X642064Y998127D02*
X641246Y997752D01*
X640701Y996627*
X640428Y994752*
Y993627*
X640701Y991752*
X641246Y990627*
X642064Y990252*
X642610*
X643428Y990627*
X643974Y991752*
X644246Y993627*
Y994752*
X643974Y996627*
X643428Y997752*
X642610Y998127*
X642064*
X0Y0D02*
M02*
