%
T1C.012F095S3
X04167Y05042
X04142Y051845
X04192Y051845
X04247Y051845
X04297Y051845
X04142Y052445
X04157Y05372
X04267Y05437
X04207Y05437
X04157Y05437
X04142Y05502
X04132Y05612
X04132Y05677
X04237Y05692
X04177Y05692
X04297Y05692
X04217Y05932
X04216Y06087
X045622Y08137
X044598Y08012
X04582Y080022
X04667Y06087
X04447Y060849
X04447Y060376
X04667Y06037
X04447Y059904
X04667Y059904
X04397Y059274
X04667Y05927
X04532Y059117
X04667Y058487
X04447Y058329
X04667Y057699
X04447Y057542
X04667Y056912
X04447Y056754
X04667Y056282
X04447Y056282
X04447Y05581
X04667Y05581
X04447Y055337
X04667Y05518
X04722Y05462
X04747Y05422
X04697Y05422
X04667Y05329
X04557Y05082
X05022Y06232
X05407Y07472
X05462Y076346
X053814Y07757
X05207Y07852
X05297Y07927
X05512Y07927
X05887Y060849
X05867Y060376
X05997Y060376
X05792Y059904
X05997Y059904
X05792Y059432
X05997Y059432
X05792Y058959
X05997Y058959
X05792Y058487
X05997Y058487
X05792Y058014
X05997Y058014
X05997Y057542
X05997Y057069
X05997Y056597
X05792Y056597
X05792Y056124
X05997Y056124
X05792Y055652
X05997Y055652
X05792Y05518
X05997Y05518
X05792Y054707
X05997Y054707
X05997Y054235
X05792Y054235
X05792Y053762
X05997Y053762
X05792Y05329
X05997Y05329
T2C.01969F095S3
X045897Y081015
X044323Y081015
T3C.1F069S658
X041339Y041339
X059449Y041339
X059449Y080709
X041339Y080709
T4C.1063F069S658
X045752Y048526
X058744Y048526
X058744Y067424
X045752Y067424
M30
