*
*
G04 PADS 9.5 Build Number: 522968 generated Gerber (RS-274-X) file*
G04 PC Version=2.1*
*
%IN "Pi-Program-Iss1.1.pcb"*%
*
%MOIN*%
*
%FSLAX35Y35*%
*
*
*
*
G04 PC Standard Apertures*
*
*
G04 Thermal Relief Aperture macro.*
%AMTER*
1,1,$1,0,0*
1,0,$1-$2,0,0*
21,0,$3,$4,0,0,45*
21,0,$3,$4,0,0,135*
%
*
*
G04 Annular Aperture macro.*
%AMANN*
1,1,$1,0,0*
1,0,$2,0,0*
%
*
*
G04 Odd Aperture macro.*
%AMODD*
1,1,$1,0,0*
1,0,$1-0.005,0,0*
%
*
*
G04 PC Custom Aperture Macros*
*
*
*
*
*
*
G04 PC Aperture Table*
*
%ADD010C,0.001*%
%ADD027C,0.01*%
%ADD043R,0.03X0.038*%
%ADD046R,0.038X0.03*%
%ADD057R,0.1X0.06*%
%ADD087R,0.02362X0.04724*%
%ADD111R,0.01575X0.07087*%
%ADD112R,0.04331X0.03937*%
%ADD113R,0.05315X0.05906*%
%ADD114R,0.05906X0.05512*%
%ADD115R,0.028X0.04*%
%ADD119C,0.04*%
%ADD136R,0.02756X0.00787*%
*
*
*
*
G04 PC Circuitry*
G04 Layer Name Pi-Program-Iss1.1.pcb - circuitry*
%LPD*%
*
*
G04 PC Custom Flashes*
G04 Layer Name Pi-Program-Iss1.1.pcb - flashes*
%LPD*%
*
*
G04 PC Circuitry*
G04 Layer Name Pi-Program-Iss1.1.pcb - circuitry*
%LPD*%
*
G54D10*
G54D27*
G01X393701Y826772D02*
X614173D01*
Y393701*
X393701*
Y826772*
G54D43*
X551201Y798101D03*
Y804301D03*
X529701Y798101D03*
Y804301D03*
G54D46*
X427801Y504201D03*
X421601D03*
Y597701D03*
X427801D03*
Y604712D03*
X421601D03*
G54D57*
X423701Y537951D03*
Y524451D03*
Y548951D03*
Y562451D03*
G54D87*
X535551Y751181D03*
X539291D03*
X543031D03*
Y760236D03*
X535354D03*
G54D111*
X456219Y807319D03*
X453660D03*
X451101D03*
X448542D03*
X445983D03*
G54D112*
X457006Y823146D03*
X445195D03*
G54D113*
X467144Y818618D03*
X435057D03*
G54D114*
X463896Y807988D03*
X438306D03*
G54D115*
X543191Y796335D03*
Y804209D03*
X520558Y796386D03*
Y804260D03*
G54D119*
X413386Y787402D03*
X594488D03*
X413386Y433071D03*
G54D136*
X449648Y608489D03*
X461774Y602190D03*
Y531324D03*
X583191Y608489D03*
X595317D03*
X583191Y606915D03*
X595317D03*
X583191Y605340D03*
X595317D03*
X583191Y603765D03*
X595317D03*
X583191Y602190D03*
X449648Y600615D03*
X595317Y602190D03*
X583191Y600615D03*
X595317D03*
X583191Y599041D03*
X595317D03*
X583191Y597466D03*
X595317D03*
X583191Y595891D03*
X595317D03*
X583191Y594316D03*
X461774Y600615D03*
X595317Y594316D03*
X583191Y592741D03*
X595317D03*
X583191Y591167D03*
X595317D03*
X583191Y589592D03*
X595317D03*
X583191Y588017D03*
X595317D03*
X583191Y586442D03*
X449648Y599041D03*
X595317Y586442D03*
X583191Y584867D03*
X595317D03*
X583191Y583292D03*
X595317D03*
X583191Y581717D03*
X595317D03*
X583191Y580143D03*
X595317D03*
X583191Y578568D03*
X461774Y599041D03*
X595317Y578568D03*
X583191Y576993D03*
X595317D03*
X583191Y575418D03*
X595317D03*
X583191Y573843D03*
X595317D03*
X583191Y572269D03*
X595317D03*
X583191Y570694D03*
X449648Y597466D03*
X595317Y570694D03*
X583191Y569119D03*
X595317D03*
X583191Y567544D03*
X595317D03*
X583191Y565969D03*
X595317D03*
X583191Y564395D03*
X595317D03*
X583191Y562820D03*
X461774Y597466D03*
X595317Y562820D03*
X583191Y561245D03*
X595317D03*
X583191Y559670D03*
X595317D03*
X583191Y558095D03*
X595317D03*
X583191Y556521D03*
X595317D03*
X583191Y554946D03*
X449648Y595891D03*
X595317Y554946D03*
X583191Y553371D03*
X595317D03*
X583191Y551796D03*
X595317D03*
X583191Y550221D03*
X595317D03*
X583191Y548647D03*
X595317D03*
X583191Y547072D03*
X461774Y595891D03*
X595317Y547072D03*
X583191Y545497D03*
X595317D03*
X583191Y543922D03*
X595317D03*
X583191Y542347D03*
X595317D03*
X583191Y540773D03*
X595317D03*
X583191Y539198D03*
X449648Y594316D03*
X595317Y539198D03*
X583191Y537623D03*
X595317D03*
X583191Y536048D03*
X595317D03*
X583191Y534473D03*
X595317D03*
X583191Y532899D03*
X595317D03*
X583191Y531324D03*
X461774Y608489D03*
Y594316D03*
X595317Y531324D03*
X449648Y592741D03*
X461774D03*
X449648Y591167D03*
X461774D03*
X449648Y589592D03*
X461774D03*
X449648Y588017D03*
X461774D03*
X449648Y586442D03*
Y606915D03*
X461774Y586442D03*
X449648Y584867D03*
X461774D03*
X449648Y583292D03*
X461774D03*
X449648Y581717D03*
X461774D03*
X449648Y580143D03*
X461774D03*
X449648Y578568D03*
X461774Y606915D03*
Y578568D03*
X449648Y576993D03*
X461774D03*
X449648Y575418D03*
X461774D03*
X449648Y573843D03*
X461774D03*
X449648Y572269D03*
X461774D03*
X449648Y570694D03*
Y605340D03*
X461774Y570694D03*
X449648Y569119D03*
X461774D03*
X449648Y567544D03*
X461774D03*
X449648Y565969D03*
X461774D03*
X449648Y564395D03*
X461774D03*
X449648Y562820D03*
X461774Y605340D03*
Y562820D03*
X449648Y561245D03*
X461774D03*
X449648Y559670D03*
X461774D03*
X449648Y558095D03*
X461774D03*
X449648Y556521D03*
X461774D03*
X449648Y554946D03*
Y603765D03*
X461774Y554946D03*
X449648Y553371D03*
X461774D03*
X449648Y551796D03*
X461774D03*
X449648Y550221D03*
X461774D03*
X449648Y548647D03*
X461774D03*
X449648Y547072D03*
X461774Y603765D03*
Y547072D03*
X449648Y545497D03*
X461774D03*
X449648Y543922D03*
X461774D03*
X449648Y542347D03*
X461774D03*
X449648Y540773D03*
X461774D03*
X449648Y539198D03*
Y602190D03*
X461774Y539198D03*
X449648Y537623D03*
X461774D03*
X449648Y536048D03*
X461774D03*
X449648Y534473D03*
X461774D03*
X449648Y532899D03*
X461774D03*
X449648Y531324D03*
X0Y0D02*
M02*
