*
*
G04 PADS 9.5 Build Number: 522968 generated Gerber (RS-274-X) file*
G04 PC Version=2.1*
*
%IN "Pi-Program-Iss1.1.pcb"*%
*
%MOIN*%
*
%FSLAX35Y35*%
*
*
*
*
G04 PC Standard Apertures*
*
*
G04 Thermal Relief Aperture macro.*
%AMTER*
1,1,$1,0,0*
1,0,$1-$2,0,0*
21,0,$3,$4,0,0,45*
21,0,$3,$4,0,0,135*
%
*
*
G04 Annular Aperture macro.*
%AMANN*
1,1,$1,0,0*
1,0,$2,0,0*
%
*
*
G04 Odd Aperture macro.*
%AMODD*
1,1,$1,0,0*
1,0,$1-0.005,0,0*
%
*
*
G04 PC Custom Aperture Macros*
*
*
*
*
*
*
G04 PC Aperture Table*
*
%ADD010C,0.001*%
%ADD027C,0.01*%
%ADD049C,0.005*%
%ADD064C,0.00787*%
*
*
*
*
G04 PC Circuitry*
G04 Layer Name Pi-Program-Iss1.1.pcb - circuitry*
%LPD*%
*
*
G04 PC Custom Flashes*
G04 Layer Name Pi-Program-Iss1.1.pcb - flashes*
%LPD*%
*
*
G04 PC Circuitry*
G04 Layer Name Pi-Program-Iss1.1.pcb - circuitry*
%LPD*%
*
G54D10*
G54D27*
G01X466416Y824169D02*
Y826807D01*
X436219*
Y824169*
X468266Y812280D02*
Y801256D01*
X433778*
Y812043*
X430701Y534951D02*
Y543001D01*
X416701*
Y534951*
X430701Y527451D02*
Y519401D01*
X416701*
Y527451*
Y551951D02*
Y543901D01*
X430701*
Y551951*
X416701Y559451D02*
Y567501D01*
X430701*
Y559451*
X540593Y793579D02*
Y806926D01*
X545751*
Y793579*
X540593*
X544845D02*
Y791871D01*
X541243*
Y793579*
X544845*
X517959Y793630D02*
Y806976D01*
X523117*
Y793630*
X517959*
X522211D02*
Y791921D01*
X518609*
Y793630*
X522211*
X424701Y503501D02*
Y504801D01*
X550501Y801201D02*
X551801D01*
X529001D02*
X530301D01*
X424701Y598401D02*
Y597101D01*
Y604012D02*
Y605312D01*
X457201Y419763D02*
Y413201D01*
Y419763D02*
X459246D01*
X459928Y419451*
X460155Y419138*
X460383Y418513*
Y417576*
X460155Y416951*
X459928Y416638*
X459246Y416326*
X457201*
X462428Y419763D02*
X462655Y419451D01*
X462883Y419763*
X462655Y420076*
X462428Y419763*
X462655Y417576D02*
Y413201D01*
X464928Y416013D02*
X469019D01*
X471064Y419763D02*
Y413201D01*
Y419763D02*
X474019D01*
X471064Y416638D02*
X472883D01*
X476064Y419763D02*
Y413201D01*
X480837Y417576D02*
Y413201D01*
Y416638D02*
X480383Y417263D01*
X479928Y417576*
X479246*
X478792Y417263*
X478337Y416638*
X478110Y415701*
Y415076*
X478337Y414138*
X478792Y413513*
X479246Y413201*
X479928*
X480383Y413513*
X480837Y414138*
X485383Y416638D02*
X485155Y417263D01*
X484474Y417576*
X483792*
X483110Y417263*
X482883Y416638*
X483110Y416013*
X483564Y415701*
X484701Y415388*
X485155Y415076*
X485383Y414451*
Y414138*
X485155Y413513*
X484474Y413201*
X483792*
X483110Y413513*
X482883Y414138*
X487428Y419763D02*
Y413201D01*
Y416326D02*
X488110Y417263D01*
X488564Y417576*
X489246*
X489701Y417263*
X489928Y416326*
Y413201*
X500610Y418201D02*
X500383Y418826D01*
X499928Y419451*
X499474Y419763*
X498564*
X498110Y419451*
X497655Y418826*
X497428Y418201*
X497201Y417263*
Y415701*
X497428Y414763*
X497655Y414138*
X498110Y413513*
X498564Y413201*
X499474*
X499928Y413513*
X500383Y414138*
X500610Y414763*
X502655Y419763D02*
Y413201D01*
Y419763D02*
X504474Y413201D01*
X506292Y419763D02*
X504474Y413201D01*
X506292Y419763D02*
Y413201D01*
X510610Y419763D02*
X508337Y415388D01*
X511746*
X510610Y419763D02*
Y413201D01*
X524246Y419763D02*
X524474Y419451D01*
X524701Y419763*
X524474Y420076*
X524246Y419763*
X524474Y417576D02*
Y413201D01*
X529246Y416638D02*
X529019Y417263D01*
X528337Y417576*
X527655*
X526974Y417263*
X526746Y416638*
X526974Y416013*
X527428Y415701*
X528564Y415388*
X529019Y415076*
X529246Y414451*
Y414138*
X529019Y413513*
X528337Y413201*
X527655*
X526974Y413513*
X526746Y414138*
X533792Y416638D02*
X533564Y417263D01*
X532883Y417576*
X532201*
X531519Y417263*
X531292Y416638*
X531519Y416013*
X531974Y415701*
X533110Y415388*
X533564Y415076*
X533792Y414451*
Y414138*
X533564Y413513*
X532883Y413201*
X532201*
X531519Y413513*
X531292Y414138*
X541064Y418513D02*
X541519Y418826D01*
X542201Y419763*
Y413201*
X544474Y413826D02*
X544246Y413513D01*
X544474Y413201*
X544701Y413513*
X544474Y413826*
X548110Y419763D02*
X547428Y419451D01*
X546974Y418513*
X546746Y416951*
Y416013*
X546974Y414451*
X547428Y413513*
X548110Y413201*
X548564*
X549246Y413513*
X549701Y414451*
X549928Y416013*
Y416951*
X549701Y418513*
X549246Y419451*
X548564Y419763*
X548110*
X393701Y826772D02*
X614173D01*
Y393701*
X393701*
Y826772*
X423235Y807087D02*
G75*
G03X423235I-9849J0D01*
G01X604338Y413386D02*
G03X604338I-9850J0D01*
G01X423838D02*
G03X423838I-9850J0D01*
G01X604338Y807087D02*
G03X604338I-9850J0D01*
G54D49*
G01X443743Y674237D02*
Y485261D01*
G03X457522Y471481I13779J-0*
G01X587443*
G03X601223Y485261I0J13780*
G01Y674237*
G03X587444Y688017I-13779J0*
G01X587443D02*
X457522D01*
X457523D02*
G03X443743Y674237I-0J-13780D01*
G01X436337Y798982D02*
Y796482D01*
X436224Y796013*
X436110Y795857*
X435883Y795701*
X435655*
X435428Y795857*
X435314Y796013*
X435201Y796482*
Y796795*
X437360Y798357D02*
X437587Y798513D01*
X437928Y798982*
Y795701*
X412701Y522905D02*
X412388Y522792D01*
X412076Y522564*
X411920Y522337*
Y521883*
X412076Y521655*
X412388Y521428*
X412701Y521314*
X413170Y521201*
X413951*
X414420Y521314*
X414732Y521428*
X415045Y521655*
X415201Y521883*
Y522337*
X415045Y522564*
X414732Y522792*
X414420Y522905*
X412701Y524042D02*
X412545D01*
X412232Y524155*
X412076Y524269*
X411920Y524496*
Y524951*
X412076Y525178*
X412232Y525292*
X412545Y525405*
X412857*
X413170Y525292*
X413638Y525064*
X415201Y523928*
Y525519*
X412701Y562905D02*
X412388Y562792D01*
X412076Y562564*
X411920Y562337*
Y561883*
X412076Y561655*
X412388Y561428*
X412701Y561314*
X413170Y561201*
X413951*
X414420Y561314*
X414732Y561428*
X415045Y561655*
X415201Y561883*
Y562337*
X415045Y562564*
X414732Y562792*
X414420Y562905*
X412545Y563928D02*
X412388Y564155D01*
X411920Y564496*
X415201*
X541123Y779928D02*
X544404D01*
Y781292*
X541123Y782314D02*
X544404D01*
X541123D02*
Y783792D01*
X542685Y782314D02*
Y783224D01*
X544404Y782314D02*
Y783792D01*
X541123Y784814D02*
X544404D01*
X541123D02*
Y785610D01*
X541279Y785951*
X541591Y786178*
X541904Y786292*
X542373Y786405*
X543154*
X543623Y786292*
X543935Y786178*
X544248Y785951*
X544404Y785610*
Y784814*
X541748Y787428D02*
X541591Y787655D01*
X541123Y787996*
X544404*
X518623Y779417D02*
X521904D01*
Y780780*
X518623Y781803D02*
X521904D01*
X518623D02*
Y783280D01*
X520185Y781803D02*
Y782712D01*
X521904Y781803D02*
Y783280D01*
X518623Y784303D02*
X521904D01*
X518623D02*
Y785099D01*
X518779Y785439*
X519091Y785667*
X519404Y785780*
X519873Y785894*
X520654*
X521123Y785780*
X521435Y785667*
X521748Y785439*
X521904Y785099*
Y784303*
X519404Y787030D02*
X519248D01*
X518935Y787144*
X518779Y787258*
X518623Y787485*
Y787939*
X518779Y788167*
X518935Y788280*
X519248Y788394*
X519560*
X519873Y788280*
X520341Y788053*
X521904Y786917*
Y788508*
X420275Y499539D02*
Y496257D01*
Y499539D02*
X421297D01*
X421638Y499382*
X421752Y499226*
X421866Y498914*
Y498601*
X421752Y498289*
X421638Y498132*
X421297Y497976*
X420275*
X421070D02*
X421866Y496257D01*
X424366Y499539D02*
X423229D01*
X423116Y498132*
X423229Y498289*
X423570Y498445*
X423911*
X424252Y498289*
X424479Y497976*
X424593Y497507*
X424479Y497195*
X424366Y496726*
X424138Y496414*
X423797Y496257*
X423456*
X423116Y496414*
X423002Y496570*
X422888Y496882*
X549623Y785258D02*
X552904D01*
X549623D02*
Y786280D01*
X549779Y786621*
X549935Y786735*
X550248Y786849*
X550560*
X550873Y786735*
X551029Y786621*
X551185Y786280*
Y785258*
Y786053D02*
X552904Y786849D01*
X550404Y787985D02*
X550248D01*
X549935Y788099*
X549779Y788212*
X549623Y788439*
Y788894*
X549779Y789121*
X549935Y789235*
X550248Y789349*
X550560*
X550873Y789235*
X551341Y789008*
X552904Y787871*
Y789462*
X527920Y785201D02*
X531201D01*
X527920D02*
Y786224D01*
X528076Y786564*
X528232Y786678*
X528545Y786792*
X528857*
X529170Y786678*
X529326Y786564*
X529482Y786224*
Y785201*
Y785996D02*
X531201Y786792D01*
X528545Y787814D02*
X528388Y788042D01*
X527920Y788383*
X531201*
X410858Y599458D02*
Y596177D01*
Y599458D02*
X411881D01*
X412221Y599302*
X412335Y599146*
X412449Y598833*
Y598521*
X412335Y598208*
X412221Y598052*
X411881Y597896*
X410858*
X411653D02*
X412449Y596177D01*
X414608Y599458D02*
X413471Y597271D01*
X415176*
X414608Y599458D02*
Y596177D01*
X410223Y606824D02*
Y603543D01*
Y606824D02*
X411246D01*
X411586Y606668*
X411700Y606512*
X411814Y606199*
Y605887*
X411700Y605574*
X411586Y605418*
X411246Y605262*
X410223*
X411018D02*
X411814Y603543D01*
X413064Y606824D02*
X414314D01*
X413632Y605574*
X413973*
X414200Y605418*
X414314Y605262*
X414427Y604793*
Y604480*
X414314Y604012*
X414086Y603699*
X413746Y603543*
X413405*
X413064Y603699*
X412950Y603855*
X412836Y604168*
X530920Y766201D02*
X533263D01*
X533732Y766314*
X534045Y766542*
X534201Y766883*
Y767110*
X534045Y767451*
X533732Y767678*
X533263Y767792*
X530920*
X531545Y768814D02*
X531388Y769042D01*
X530920Y769383*
X534201*
X517610Y813982D02*
X516701Y810701D01*
X517610Y813982D02*
X518519Y810701D01*
X517042Y811795D02*
X518178D01*
X521246Y813201D02*
X521133Y813513D01*
X520905Y813826*
X520678Y813982*
X520224*
X519996Y813826*
X519769Y813513*
X519655Y813201*
X519542Y812732*
Y811951*
X519655Y811482*
X519769Y811170*
X519996Y810857*
X520224Y810701*
X520678*
X520905Y810857*
X521133Y811170*
X521246Y811482*
X523064Y813982D02*
Y810701D01*
X522269Y813982D02*
X523860D01*
X539701D02*
Y810701D01*
Y813982D02*
X540724D01*
X541064Y813826*
X541178Y813670*
X541292Y813357*
Y812888*
X541178Y812576*
X541064Y812420*
X540724Y812263*
X539701*
X542314Y813982D02*
X542883Y810701D01*
X543451Y813982D02*
X542883Y810701D01*
X543451Y813982D02*
X544019Y810701D01*
X544587Y813982D02*
X544019Y810701D01*
X545610Y813982D02*
Y810701D01*
Y813982D02*
X546633D01*
X546974Y813826*
X547087Y813670*
X547201Y813357*
Y813045*
X547087Y812732*
X546974Y812576*
X546633Y812420*
X545610*
X546405D02*
X547201Y810701D01*
X586405Y615701D02*
X586292Y616013D01*
X586064Y616326*
X585837Y616482*
X585383*
X585155Y616326*
X584928Y616013*
X584814Y615701*
X584701Y615232*
Y614451*
X584814Y613982*
X584928Y613670*
X585155Y613357*
X585383Y613201*
X585837*
X586064Y613357*
X586292Y613670*
X586405Y613982*
X587428Y616482D02*
Y613201D01*
Y616482D02*
X588337Y613201D01*
X589246Y616482D02*
X588337Y613201D01*
X589246Y616482D02*
Y613201D01*
X591405Y616482D02*
X590269Y614295D01*
X591974*
X591405Y616482D02*
Y613201D01*
X592996Y616482D02*
Y613201D01*
Y616482D02*
X594019D01*
X594360Y616326*
X594474Y616170*
X594587Y615857*
Y615545*
X594474Y615232*
X594360Y615076*
X594019Y614920*
X592996D02*
X594019D01*
X594360Y614763*
X594474Y614607*
X594587Y614295*
Y613826*
X594474Y613513*
X594360Y613357*
X594019Y613201*
X592996*
X453405Y615201D02*
X453292Y615513D01*
X453064Y615826*
X452837Y615982*
X452383*
X452155Y615826*
X451928Y615513*
X451814Y615201*
X451701Y614732*
Y613951*
X451814Y613482*
X451928Y613170*
X452155Y612857*
X452383Y612701*
X452837*
X453064Y612857*
X453292Y613170*
X453405Y613482*
X454428Y615982D02*
Y612701D01*
Y615982D02*
X455337Y612701D01*
X456246Y615982D02*
X455337Y612701D01*
X456246Y615982D02*
Y612701D01*
X458405Y615982D02*
X457269Y613795D01*
X458974*
X458405Y615982D02*
Y612701D01*
X460905Y615982D02*
X459996Y612701D01*
X460905Y615982D02*
X461814Y612701D01*
X460337Y613795D02*
X461474D01*
G54D64*
X536370Y761098D02*
Y765823D01*
G74*
X0Y0D02*
M02*
